<?xml version="1.0" standalone="no"?><!DOCTYPE svg PUBLIC "-//W3C//DTD SVG 1.1//EN" "http://www.w3.org/Graphics/SVG/1.1/DTD/svg11.dtd"><svg t="1574123830979" class="icon" viewBox="0 0 1626 1024" version="1.1" xmlns="http://www.w3.org/2000/svg" p-id="10455" xmlns:xlink="http://www.w3.org/1999/xlink" width="203.25" height="128"><defs><style type="text/css"></style></defs><path d="M470.162794 673.603287l46.530742-46.530741 46.530741 46.530741a10.439071 10.439071 0 0 0 14.647068 0l49.363047-46.854433 46.692588 46.692587a10.519994 10.519994 0 0 0 14.727991 0l49.524893-47.097202 49.524893 47.097202a10.439071 10.439071 0 0 0 14.485222 0l49.767663-47.259048 52.357199 47.420894a10.519994 10.519994 0 0 0 14.16153 0l52.599968-47.259048 52.599969 47.582741a10.358148 10.358148 0 0 0 7.040303 2.751383 10.196302 10.196302 0 0 0 7.040304-2.751383l52.599968-47.582741 52.599969 47.582741a10.439071 10.439071 0 0 0 14.485222 0l55.189505-55.270429a10.277225 10.277225 0 0 0 3.155998-7.444918V56.64612a56.64612 56.64612 0 0 0-56.64612-56.64612H458.671724a56.64612 56.64612 0 0 0-56.646119 56.64612v559.339971a10.843686 10.843686 0 0 0 3.075075 7.444919l50.172277 50.172277a10.68184 10.68184 0 0 0 14.889837 0zM423.065592 56.64612a35.606132 35.606132 0 0 1 35.606132-35.52521h700.38881a35.606132 35.606132 0 0 1 35.606133 35.52521v550.276592l-45.15505 45.074127-52.195353-47.178126a10.439071 10.439071 0 0 0-14.080607 0l-52.599969 47.582741-52.599968-47.582741a10.034456 10.034456 0 0 0-7.040304-2.751383 10.358148 10.358148 0 0 0-7.040303 2.751383l-52.599968 47.582741-52.519046-47.582741a10.519994 10.519994 0 0 0-14.323376 0l-49.524893 47.097203-49.524893-47.097203a10.600917 10.600917 0 0 0-14.566145 0l-49.282125 46.611665-46.77351-46.692588a10.439071 10.439071 0 0 0-14.647068 0l-49.363047 46.854434-46.692588-46.692588a10.68184 10.68184 0 0 0-14.889837 0l-46.530741 46.530742-39.652284-39.652284z" fill="#B6B6B6" p-id="10456"></path><path d="M1199.602971 912.245298a35.687055 35.687055 0 0 0 30.427059-39.895053L1205.18666 679.753438l-32.369211 41.837205a10.519994 10.519994 0 0 1-14.323376 2.184922l-58.26458-40.461514-45.96428 53.97566a10.519994 10.519994 0 0 1-13.999684 1.861229l-58.264581-40.461514-45.883357 53.894737a10.519994 10.519994 0 0 1-13.999684 1.86123l-58.021811-40.461514-43.212897 53.247352a10.519994 10.519994 0 0 1-14.404299 1.86123l-55.189505-40.461514-43.051051 53.085506a10.439071 10.439071 0 0 1-14.566145 1.699384l-52.3572-40.461514-42.48459 53.409198a10.439071 10.439071 0 0 1-14.566145 1.699384l-52.195353-40.461514-40.461514 52.11443a10.196302 10.196302 0 0 1-7.040304 4.046151 10.439071 10.439071 0 0 1-8.092302-2.103998l-35.767979-27.51383 24.276909 187.903272a35.767979 35.767979 0 0 0 39.895053 30.669828z" fill="#F0F0F0" p-id="10457"></path><path d="M1222.746957 651.673147a10.600917 10.600917 0 0 0-7.687687-8.82061 10.439071 10.439071 0 0 0-11.086455 3.722459l-41.513514 53.97566-57.940888-40.056899a10.358148 10.358148 0 0 0-13.918761 1.780307l-46.045203 53.975659-58.26458-40.461514a10.600917 10.600917 0 0 0-13.999684 1.780307l-45.96428 53.97566-58.264581-40.461514a10.600917 10.600917 0 0 0-14.161529 2.023075l-43.051052 53.085507-55.270428-40.461514a10.519994 10.519994 0 0 0-14.323376 1.942152L698.365734 760.676466l-52.357199-40.461514a10.519994 10.519994 0 0 0-14.566145 1.699383l-42.889205 52.923661-52.3572-40.461514a10.439071 10.439071 0 0 0-14.727991 1.942152l-40.461514 52.114431-47.906433-36.981824a10.519994 10.519994 0 0 0-16.831989 9.710763l27.756598 213.070334a56.64612 56.64612 0 0 0 55.998736 49.282124 57.536273 57.536273 0 0 0 7.444918-0.485538l694.481429-90.471946a56.64612 56.64612 0 0 0 48.553817-63.443654zM478.821558 995.353248a35.363363 35.363363 0 0 1-13.675991-23.548601l-24.276909-187.903272 36.091671 27.837522a10.439071 10.439071 0 0 0 8.092303 2.103999 10.196302 10.196302 0 0 0 7.040303-4.046152l40.461514-52.11443 52.195353 40.461514a10.439071 10.439071 0 0 0 14.566146-1.699384l42.889205-52.842737 52.357199 40.461514a10.439071 10.439071 0 0 0 14.566145-1.699383l43.051051-53.085507 55.189505 40.461514a10.519994 10.519994 0 0 0 14.404299-1.86123l43.212897-53.247352 58.021812 40.461514a10.519994 10.519994 0 0 0 13.999684-1.86123l46.045203-53.894737 58.26458 40.461515a10.519994 10.519994 0 0 0 13.999684-1.86123l45.235973-54.78489 58.26458 40.461514a10.519994 10.519994 0 0 0 14.323376-2.184922l32.369211-41.837205L1230.03003 872.350245a35.687055 35.687055 0 0 1-30.669828 39.895053l-694.319582 90.471946a35.525209 35.525209 0 0 1-26.219062-7.363996z" fill="#B6B6B6" p-id="10458"></path><path d="M496.462779 102.691323l535.548601 0 0 46.045203-535.548601 0 0-46.045203Z" fill="#F0F0F0" p-id="10459"></path><path d="M496.462779 200.608187l400.407144 0 0 46.045203-400.407144 0 0-46.045203Z" fill="#F0F0F0" p-id="10460"></path><path d="M501.156314 344.570254h116.77193a32.369211 32.369211 0 0 1 61.582425 0h17.560297a4.693536 4.693536 0 0 0 4.693535-4.693535v-36.658132a4.693536 4.693536 0 0 0-4.693535-4.693536H501.156314a4.693536 4.693536 0 0 0-4.693535 4.693536V339.876719a4.693536 4.693536 0 0 0 4.693535 4.693535z" fill="#F0F0F0" p-id="10461"></path><path d="M496.462779 396.441916l270.930298 0 0 46.045203-270.930298 0 0-46.045203Z" fill="#F0F0F0" p-id="10462"></path><path d="M503.503082 540.484906h446.128655a7.121226 7.121226 0 0 0 7.040303-7.040304V501.722775a7.040303 7.040303 0 0 0-7.040303-7.040303h-79.709183a10.358148 10.358148 0 0 1-10.358147 10.519994 10.68184 10.68184 0 0 1-9.306149-5.502766 53.16643 53.16643 0 0 0-3.075075-5.017228h-76.634108c-1.942153 2.913229-3.075075 4.936305-3.155998 5.017228a10.519994 10.519994 0 0 1-14.242453 4.207997 10.358148 10.358148 0 0 1-5.34092-9.225225H503.503082a7.040303 7.040303 0 0 0-7.040303 7.040303v32.369212a7.121226 7.121226 0 0 0 7.040303 6.392919z" fill="#F0F0F0" p-id="10463"></path><path d="M648.678995 321.588114a32.369211 32.369211 0 0 0-30.750751 22.98214 34.877825 34.877825 0 0 0-1.456614 9.225226 32.369211 32.369211 0 1 0 64.738422 0 34.877825 34.877825 0 0 0-1.456614-9.225226 32.369211 32.369211 0 0 0-31.074443-22.98214z" fill="#B6B6B6" p-id="10464"></path><path d="M968.972341 356.142248m-32.288289 0a32.288288 32.288288 0 1 0 64.576577 0 32.288288 32.288288 0 1 0-64.576577 0Z" fill="#B6B6B6" p-id="10465"></path><path d="M753.150624 503.584005a10.519994 10.519994 0 0 0 14.242453-4.207997s1.213845-2.103999 3.155998-5.017228C776.861072 485.53817 791.103525 467.330488 809.230283 467.330488s32.369211 18.045835 38.357515 27.028292a53.16643 53.16643 0 0 1 3.075075 5.017228 10.68184 10.68184 0 0 0 9.306149 5.502766 10.358148 10.358148 0 0 0 10.358147-10.519994 10.115379 10.115379 0 0 0-1.132922-5.017228c-0.971076-1.699384-23.629524-43.051051-59.963964-43.051051s-58.992888 41.351667-59.963964 43.051051a11.005532 11.005532 0 0 0-1.051999 5.017228 10.358148 10.358148 0 0 0 4.936304 9.225225z" fill="#B6B6B6" p-id="10466"></path><path d="M186.122965 509.815078a24.276908 24.276908 0 0 0-24.276908-24.276908H45.316896a24.276908 24.276908 0 1 0 0 48.553817H161.846057a24.276908 24.276908 0 0 0 24.276908-24.276909z" fill="#F0F0F0" p-id="10467"></path><path d="M207.162952 509.815078a45.316896 45.316896 0 0 0-45.316895-45.316896H45.316896a45.316896 45.316896 0 1 0 0 90.633792H161.846057a45.397819 45.397819 0 0 0 45.316895-45.316896z m-186.122965 0a24.276908 24.276908 0 0 1 24.276909-24.276908H161.846057a24.276908 24.276908 0 0 1 0 48.553817H45.316896a24.276908 24.276908 0 0 1-24.276909-24.276909z" fill="#B6B6B6" p-id="10468"></path><path d="M172.608819 246.006006a24.276908 24.276908 0 1 0-34.311364 34.311364l82.379643 82.379643a24.276908 24.276908 0 1 0 34.311364-34.311364z" fill="#F0F0F0" p-id="10469"></path><path d="M187.498657 231.116169a45.316896 45.316896 0 0 0-64.091039 64.091038l82.379643 82.379643a45.316896 45.316896 0 1 0 64.091038-64.091038z m67.489805 131.580844a24.276908 24.276908 0 0 1-34.311364 0L138.297455 280.31737a24.276908 24.276908 0 1 1 34.311364-34.311364l82.379643 82.379643a24.276908 24.276908 0 0 1 0 34.311364z" fill="#B6B6B6" p-id="10470"></path><path d="M237.83278 649.002687a24.276908 24.276908 0 0 0-17.155682 7.040303L138.297455 738.503556a24.276908 24.276908 0 0 0 0 34.311364 24.276908 24.276908 0 0 0 34.311364 0l82.379643-82.379643a24.276908 24.276908 0 0 0-17.155682-41.43259z" fill="#F0F0F0" p-id="10471"></path><path d="M205.787261 641.153153L123.407618 723.613719a45.316896 45.316896 0 0 0 64.091039 64.091038l82.379642-82.460565a45.316896 45.316896 0 1 0-64.091038-64.091039z m49.201201 49.282124L172.608819 772.81492a24.276908 24.276908 0 0 1-34.311364 0 24.276908 24.276908 0 0 1 0-34.311364l82.379643-82.460566a24.276908 24.276908 0 0 1 34.311364 34.392287z" fill="#B6B6B6" p-id="10472"></path><path d="M1581.15505 486.266477H1464.706812a24.276908 24.276908 0 0 0 0 48.553817h116.529161a24.276908 24.276908 0 0 0 0-48.553817z" fill="#F0F0F0" p-id="10473"></path><path d="M1581.15505 465.22649H1464.706812a45.316896 45.316896 0 0 0 0 90.633791h116.529161a45.316896 45.316896 0 1 0 0-90.633791z m0 69.593804H1464.706812a24.276908 24.276908 0 0 1 0-48.553817h116.529161a24.276908 24.276908 0 0 1 0 48.553817z" fill="#B6B6B6" p-id="10474"></path><path d="M1405.794847 364.153627l82.379643-82.703335a24.276908 24.276908 0 0 0-34.392287-34.311364l-82.379643 82.379643a24.276908 24.276908 0 1 0 34.392287 34.635056z" fill="#F0F0F0" p-id="10475"></path><path d="M1388.558242 391.991149a45.15505 45.15505 0 0 0 32.369212-13.271377l82.460566-82.379642a45.316896 45.316896 0 0 0-64.091039-64.091039l-82.703335 82.379643a45.316896 45.316896 0 0 0 32.369212 77.362415z m-17.155682-62.472578l82.379643-82.379643a24.276908 24.276908 0 1 1 34.392287 34.311364L1405.794847 364.153627a24.276908 24.276908 0 0 1-34.392287 0 24.276908 24.276908 0 0 1 0-34.311364z" fill="#B6B6B6" p-id="10476"></path><path d="M1405.794847 657.256836a24.276908 24.276908 0 0 0-34.392287 34.311364l82.379643 82.379643a24.276908 24.276908 0 1 0 34.392287-34.311364z" fill="#F0F0F0" p-id="10477"></path><path d="M1420.603762 642.366999a45.316896 45.316896 0 0 0-64.010116 64.091038l82.379643 82.379643a45.316896 45.316896 0 1 0 64.091038-64.091039z m67.570728 131.580844a24.276908 24.276908 0 0 1-34.392287 0l-82.379643-82.379643a24.276908 24.276908 0 0 1 34.392287-34.311364L1488.17449 739.636479a24.276908 24.276908 0 0 1 0 34.311364z" fill="#B6B6B6" p-id="10478"></path></svg>