<?xml version="1.0" standalone="no"?><!DOCTYPE svg PUBLIC "-//W3C//DTD SVG 1.1//EN" "http://www.w3.org/Graphics/SVG/1.1/DTD/svg11.dtd"><svg t="1574123777763" class="icon" viewBox="0 0 1024 1024" version="1.1" xmlns="http://www.w3.org/2000/svg" p-id="9463" xmlns:xlink="http://www.w3.org/1999/xlink" width="128" height="128"><defs><style type="text/css"></style></defs><path d="M956.974 69.31H67.148c-35.53 0-64.42 28.892-64.42 64.42v612.264c0 35.497 28.922 64.418 64.42 64.418h48.402c2.932 9.046 8.301 17.998 16.36 26.364a15.866 15.866 0 0 0 7.252 4.258c80.69 20.899 100.724 46.89 105.475 60.503 5.28 15.095-3.457 27.224-4.011 27.965-5.187 6.698-4.014 16.299 2.593 21.548 6.697 5.34 16.36 4.226 21.7-2.503 7.313-9.26 17.47-31.516 9.137-56.457-11.452-34.139-52.723-60.994-122.638-79.763-5.804-6.91-7.562-12.593-7.562-17.223v-0.092c0.03-6.172 3.92-12.378 10.927-17.752 0.216-0.149 0.462-0.307 0.649-0.461a51.693 51.693 0 0 1 6.729-4.196c0.585-0.34 1.171-0.619 1.758-0.896 2.963-1.48 6.357-2.624 9.721-3.828 5.374-1.297 15.066-3.024 30.467-3.024 27.01 0 58.526 5.31 93.623 15.65 5.864 2.56 11.729 5.217 17.658 8.365a167.52 167.52 0 0 1 5.369 3.024 287.705 287.705 0 0 1 22.38 13.89c0.648 0.465 1.265 0.773 1.914 1.234C463.091 889.898 449.907 931.724 450 931.724c-3.98 7.533-1.109 16.887 6.423 20.867a15.4 15.4 0 0 0 7.191 1.791c5.556 0 10.897-2.994 13.644-8.242 4.846-9.167 20.99-55.406-76.92-135.756h273.115C575.509 890.764 591.624 937 596.469 946.14c2.839 5.342 8.427 8.55 14.17 8.55 2.312 0 4.689-0.555 6.91-1.729 7.534-3.983 10.62-12.902 6.638-20.433-0.155-0.402-14.014-42.227 104.611-125.51 8.272-5.803 16.483-10.804 24.695-15.37 1.482-0.833 2.994-1.698 4.475-2.5 6.172-3.271 12.257-6.05 18.368-8.704 34.972-10.278 66.425-15.588 93.372-15.588 15.433 0 25.097 1.76 30.407 2.994 3.393 1.203 6.885 2.377 9.816 3.889 0.586 0.279 1.109 0.555 1.668 0.802 2.59 1.388 5.031 2.871 7.096 4.476 0.096 0.063 0.19 0.124 0.278 0.185 7.07 5.371 10.958 11.607 10.99 17.81 0 0.093 0.06 0.155 0.06 0.247-0.06 4.57-1.88 10.218-7.59 17.07-69.948 18.768-111.187 45.623-122.64 79.762-8.365 24.94 1.823 47.197 9.137 56.457 5.31 6.729 15.002 7.811 21.67 2.503 6.698-5.28 7.81-14.97 2.5-21.67-0.092-0.125-9.168-12.223-4.042-27.474 4.568-13.705 24.415-39.85 105.598-60.9a15.243 15.243 0 0 0 7.253-4.262c8.087-8.395 13.491-17.408 16.391-26.515 34.849-0.774 62.97-29.231 62.97-64.267V133.73c0.095-35.53-28.799-64.42-64.296-64.42zM166.606 365.486h137.36c5.8 20.404 15.711 72.26-7.532 137.733l-1.665 4.568c-11.267 31.332-25.282 70.317 5.862 150.883 19.046 49.172 7.315 77.168-0.678 89.083 0-0.031-0.032-0.031-0.063-0.031-1.389-0.554-2.746-1.048-4.106-1.573-18.426-6.945-36.207-11.327-53.03-13.612-1.45-0.187-2.9-0.402-4.35-0.587-7.905-0.895-15.56-1.388-22.969-1.42-1.665 0-3.27 0.094-4.938 0.155-6.143 0.151-12.099 0.585-17.778 1.296-1.516 0.187-3.06 0.31-4.542 0.524-1.203 0.187-2.314 0.493-3.486 0.68 5.37-25.56 9.014-63.34-7.809-88.62-18.027-27.226-22.225-111.065-0.31-174.374 9.419-27.287-1.941-76.552-9.966-104.705zM773.279 658.67c31.177-80.627 17.1-119.614 5.803-150.976l-1.603-4.475c-23.245-65.5-13.305-117.328-7.502-137.733h137.36c-8.055 28.153-19.414 77.417-9.97 104.704 21.854 63.372 17.687 147.24-0.309 174.342-16.852 25.31-13.21 63.06-7.84 88.653-1.205-0.247-2.314-0.524-3.548-0.681-0.989-0.154-2.038-0.215-3.088-0.37-6.39-0.864-13.12-1.327-20.097-1.481-0.924-0.029-1.817-0.092-2.746-0.092-25.807-0.125-55.005 5.002-85.75 17.192-8.026-11.852-19.755-39.882-0.71-89.083z m217.217 87.325c0 18.057-14.322 32.78-32.196 33.493-2.069-5.929-5.34-11.67-9.909-17.01-0.648-0.71-1.42-1.39-2.068-2.07-0.244-0.276-0.526-0.494-0.74-0.74-2.283-2.347-4.846-4.568-7.656-6.699a62.291 62.291 0 0 0-2.715-2.005c-2.192-1.545-4.569-2.995-7.069-4.383-1.05-0.618-1.945-1.329-3.056-1.912-0.34-0.187-0.77-0.28-1.112-0.465-0.028-0.028-0.061-0.028-0.09-0.063-5.867-19.756-14.572-62.352-1.082-82.54 25.682-38.736 27.44-132.883 3.764-201.535-6.39-18.491 3.551-63.957 12.997-94.61h6.05c8.52 0 15.433-6.914 15.433-15.433 0-8.52-6.913-15.435-15.434-15.435H745.56c-8.518 0-15.435 6.915-15.435 15.435 0 5.99 3.49 11.019 8.459 13.58-6.945 27.505-14.384 81.801 9.785 149.893l1.669 4.664c10.062 27.873 21.452 59.481-5.557 129.303-21.917 56.58-10.434 93.467 1.232 113.223-10.278 5.436-20.68 11.668-31.115 18.768l-0.029 0.034H359.56c-0.987-0.68-1.977-1.145-2.994-1.823a312.9 312.9 0 0 0-25.281-15.311c-1.018-0.555-2.037-1.234-3.085-1.79 11.668-19.788 23.118-56.642 1.235-113.131-27.01-69.698-15.62-101.28-5.62-129.18l1.7-4.724c24.168-68.096 16.731-122.361 9.784-149.863 5-2.564 8.49-7.593 8.49-13.582 0-8.52-6.916-15.434-15.435-15.434H128.329c-8.52 0-15.434 6.913-15.434 15.434 0 8.52 6.914 15.435 15.434 15.435h6.048c9.416 30.65 19.384 76.12 12.997 94.609-23.304 67.385-21.513 163.412 3.767 201.535 13.365 20.096 4.723 62.784-1.112 82.54-0.37 0.22-0.863 0.34-1.234 0.526-1.235 0.65-2.221 1.42-3.364 2.069-2.315 1.325-4.537 2.654-6.607 4.107a99.79 99.79 0 0 0-2.994 2.191c-2.685 2.065-5.156 4.226-7.376 6.511-0.309 0.307-0.649 0.618-0.959 0.926-0.645 0.647-1.418 1.297-2.005 1.977-1.884 2.191-3.366 4.506-4.847 6.79a0.517 0.517 0 0 1-0.154 0.215c-2.037 3.273-3.765 6.637-4.967 10.064H67.118c-18.523 0-33.555-15.033-33.555-33.554V133.731c0-18.49 15.064-33.553 33.555-33.553h889.824c18.49 0 33.523 15.064 33.523 33.553v612.263h0.031z m-511.108-452.4c0-8.518-6.914-15.434-15.435-15.434-52.32 0-96.679-32.348-118.005-47.905-4.91-3.58-8.767-6.36-11.422-7.934-7.349-4.352-16.792-1.945-21.145 5.401-4.352 7.315-1.946 16.792 5.372 21.145 2.067 1.266 5.123 3.487 9.012 6.359 23.954 17.47 73.806 53.832 136.188 53.832 8.521-0.029 15.435-6.944 15.435-15.463z m221.167-71.273c-2.624 1.574-6.512 4.354-11.452 7.934-21.298 15.526-65.655 47.877-117.977 47.877-8.519 0-15.431 6.913-15.431 15.431 0 8.519 6.912 15.436 15.431 15.436 62.385 0 112.235-36.334 136.19-53.804 3.888-2.84 6.945-5.125 9.044-6.359 7.315-4.35 9.722-13.829 5.371-21.143-4.384-7.348-13.86-9.755-21.176-5.372z m-78.31 419.432l-103.87-46.61a15.476 15.476 0 0 0-13.306 0.307l-91.863 46.611c-7.622 3.86-10.648 13.15-6.79 20.774 3.826 7.596 13.119 10.558 20.742 6.791l85.287-43.275 97.111 43.585a15.395 15.395 0 0 0 6.33 1.359c5.865 0 11.512-3.365 14.076-9.106 3.548-7.78 0.06-16.917-7.718-20.436z" fill="#333333" p-id="9464"></path></svg>