<?xml version="1.0" encoding="utf-8"?>
<!-- Generator: Adobe Illustrator 16.0.0, SVG Export Plug-In . SVG Version: 6.00 Build 0)  -->
<!DOCTYPE svg PUBLIC "-//W3C//DTD SVG 1.1//EN" "http://www.w3.org/Graphics/SVG/1.1/DTD/svg11.dtd">
<svg version="1.1" id="图层_1" xmlns="http://www.w3.org/2000/svg" xmlns:xlink="http://www.w3.org/1999/xlink" x="0px" y="0px"
	 width="32px" height="32px" viewBox="0 0 32 32" enable-background="new 0 0 32 32" xml:space="preserve">
<path d="M5.339,29.317V2.65l22.88,13.333L5.339,29.317 M3.815,31.968l27.429-15.984L3.815,0V31.968z"/>
<path d="M15.207,14.717l3.729,0.497c0.434,0.059,0.738,0.457,0.682,0.891c-0.049,0.355-0.328,0.634-0.682,0.682l-3.729,0.495
	c-0.466,0.063-0.832,0.429-0.895,0.895l-0.496,3.728c-0.059,0.435-0.457,0.74-0.891,0.682c-0.355-0.046-0.633-0.326-0.682-0.682
	l-0.497-3.728c-0.062-0.466-0.428-0.832-0.894-0.895l-3.728-0.495c-0.434-0.059-0.739-0.458-0.681-0.892
	c0.047-0.354,0.326-0.633,0.681-0.681l3.728-0.497c0.466-0.062,0.832-0.428,0.894-0.894l0.497-3.728
	c0.059-0.434,0.457-0.739,0.891-0.681c0.355,0.047,0.633,0.326,0.682,0.681l0.496,3.728C14.375,14.289,14.741,14.655,15.207,14.717z
	"/>
</svg>
