<?xml version="1.0" standalone="no"?><!DOCTYPE svg PUBLIC "-//W3C//DTD SVG 1.1//EN" "http://www.w3.org/Graphics/SVG/1.1/DTD/svg11.dtd"><svg t="1601037410646" class="icon" viewBox="0 0 1024 1024" version="1.1" xmlns="http://www.w3.org/2000/svg" p-id="6008" xmlns:xlink="http://www.w3.org/1999/xlink" width="512" height="512"><defs><style type="text/css"></style></defs><path d="M929.7 928.2H96c-16.5 0-29.9-13.4-29.9-29.9V117.9C66.1 101.4 79.5 88 96 88h324l3.9 14.9c1.9 7.4 3.7 15 5.4 22.3 13.5 57.5 24.5 92.7 79.1 92.7h421.2c16.5 0 29.9 13.4 29.9 29.9v650.5c0.1 16.5-13.3 29.9-29.8 29.9z m-823.6-40h813.5V258H508.5c-39.3 0-69.2-14.5-88.7-43.1-16-23.6-22.8-52.5-29.4-80.5-0.5-2.2-1-4.3-1.5-6.4H106.1v760.2z" p-id="6009" data-spm-anchor-id="a313x.7781069.0.i4" class="selected" fill="#ffffff"></path></svg>