<?xml version="1.0" standalone="no"?><!DOCTYPE svg PUBLIC "-//W3C//DTD SVG 1.1//EN" "http://www.w3.org/Graphics/SVG/1.1/DTD/svg11.dtd"><svg t="1597366944541" class="icon" viewBox="0 0 1024 1024" version="1.1" xmlns="http://www.w3.org/2000/svg" p-id="6076" xmlns:xlink="http://www.w3.org/1999/xlink" width="32" height="32"><defs><style type="text/css"></style></defs><path d="M640.49152 436.28544l220.03712 29.34784a46.77632 46.77632 0 0 1 0 92.73344l-220.03712 29.34784a61.44 61.44 0 0 0-52.77696 52.77696l-29.34784 220.03712a46.77632 46.77632 0 0 1-92.73344 0l-29.34784-220.03712a61.44 61.44 0 0 0-52.77696-52.77696L163.47136 558.36672a46.77632 46.77632 0 0 1 0-92.73344l220.03712-29.34784a61.44 61.44 0 0 0 52.77696-52.77696l29.34784-220.03712a46.77632 46.77632 0 0 1 92.73344 0l29.34784 220.03712a61.44 61.44 0 0 0 52.77696 52.77696z" p-id="6077"></path></svg>