<?xml version="1.0" encoding="utf-8"?>
<!-- Generator: Adobe Illustrator 16.0.0, SVG Export Plug-In . SVG Version: 6.00 Build 0)  -->
<!DOCTYPE svg PUBLIC "-//W3C//DTD SVG 1.1//EN" "http://www.w3.org/Graphics/SVG/1.1/DTD/svg11.dtd">
<svg version="1.1" id="图层_1" xmlns="http://www.w3.org/2000/svg" xmlns:xlink="http://www.w3.org/1999/xlink" x="0px" y="0px"
	 width="512px" height="512px" viewBox="0 0 512 512" enable-background="new 0 0 512 512" xml:space="preserve">
<g>
	<path d="M188.281,464.325c-30.996,0-54.131-7.451-69.404-22.349c-15.273-14.901-22.91-38.521-22.91-70.864v-57.051
		c0-15.421-3.446-27.027-10.332-34.814c-6.889-7.784-18.344-11.68-34.365-11.68h-14.15v-42.451h14.15
		c8.086,0,14.972-0.86,20.664-2.583c5.689-1.72,10.332-4.38,13.926-7.974s6.177-8.198,7.749-13.813s2.358-12.315,2.358-20.103
		v-39.531c0-15.421,1.758-28.975,5.278-40.654c3.517-11.68,9.02-21.412,16.509-29.199c7.485-7.784,17.031-13.663,28.638-17.632
		c11.603-3.966,25.566-5.952,41.89-5.952h18.867v42.227h-14.15c-7.188,0-13.666,0.863-19.429,2.583
		c-5.767,1.723-10.746,4.531-14.937,8.423c-4.194,3.896-7.412,9.023-9.658,15.386c-2.246,6.366-3.369,14.263-3.369,23.696v39.307
		c0,11.23-0.938,20.815-2.808,28.75c-1.874,7.938-4.756,14.564-8.647,19.878c-3.896,5.317-8.837,9.434-14.824,12.354
		c-5.991,2.92-13.027,4.98-21.113,6.177c16.021,1.797,27.925,8.051,35.713,18.755c7.784,10.708,11.68,27.143,11.68,49.302v57.051
		c0,9.732,1.123,17.818,3.369,24.258c2.246,6.437,5.464,11.603,9.658,15.498c4.19,3.893,9.17,6.661,14.937,8.311
		c5.763,1.646,12.241,2.471,19.429,2.471h14.15v42.227H188.281z"/>
	<path d="M323.495,47.675c31.144,0,54.355,7.451,69.629,22.349c15.273,14.901,22.91,38.598,22.91,71.089v37.734
		c0,15.424,3.404,26.992,10.22,34.702c6.812,7.714,18.229,11.567,34.253,11.567h14.375v42.451h-14.375
		c-8.086,0-14.976,0.863-20.664,2.583c-5.692,1.724-10.297,4.38-13.813,7.974c-3.521,3.594-6.064,8.198-7.637,13.813
		s-2.358,12.318-2.358,20.103v59.072c0,15.421-1.762,28.936-5.278,40.542c-3.521,11.603-9.023,21.3-16.509,29.087
		c-7.489,7.784-17.07,13.662-28.75,17.632c-11.68,3.966-25.683,5.952-42.002,5.952h-18.867v-42.227h14.375
		c7.188,0,13.662-0.824,19.429-2.471c5.763-1.649,10.742-4.457,14.937-8.423c4.19-3.97,7.412-9.136,9.658-15.498
		c2.246-6.366,3.369-14.263,3.369-23.696v-58.398c0-11.23,0.934-20.85,2.808-28.862c1.87-8.009,4.717-14.673,8.535-19.99
		c3.818-5.313,8.721-9.396,14.712-12.241c5.987-2.843,13.027-4.864,21.113-6.064c-16.024-1.944-27.891-8.272-35.601-18.979
		c-7.714-10.704-11.567-27.139-11.567-49.302v-37.51c0-9.732-1.123-17.856-3.369-24.37s-5.468-11.715-9.658-15.61
		c-4.194-3.892-9.174-6.661-14.937-8.311c-5.767-1.646-12.241-2.471-19.429-2.471h-14.375V47.675H323.495z"/>
</g>
</svg>
