<?xml version="1.0" encoding="utf-8"?>
<!-- Generator: Adobe Illustrator 16.0.0, SVG Export Plug-In . SVG Version: 6.00 Build 0)  -->
<!DOCTYPE svg PUBLIC "-//W3C//DTD SVG 1.1//EN" "http://www.w3.org/Graphics/SVG/1.1/DTD/svg11.dtd">
<svg version="1.1" id="图层_1" xmlns="http://www.w3.org/2000/svg" xmlns:xlink="http://www.w3.org/1999/xlink" x="0px" y="0px"
	 width="32px" height="32px" viewBox="0 0 32 32" enable-background="new 0 0 32 32" xml:space="preserve">
<path fill="#A85EEF" d="M16.096,9.308l0.005-0.004l0.023,0.016c1.446-0.967,3.194-1.533,5.076-1.533
	c4.991,0,9.036,3.976,9.036,8.881c0,4.904-4.045,8.881-9.036,8.881c-1.882,0-3.634-0.566-5.082-1.538
	c-1.448,0.972-3.198,1.538-5.083,1.538C6.045,25.548,2,21.57,2,16.667c0-4.905,4.045-8.881,9.036-8.881
	C12.91,7.786,14.652,8.347,16.096,9.308z M15.181,23.285c-1.86-1.626-3.033-3.997-3.033-6.639c0-2.627,1.161-4.988,3.007-6.614
	c-1.2-0.721-2.61-1.136-4.119-1.136c-4.367,0-7.907,3.479-7.907,7.771c0,4.291,3.541,7.771,7.907,7.771
	C12.556,24.438,13.976,24.016,15.181,23.285z M17.063,10.045c1.838,1.626,2.992,3.981,2.992,6.604c0,2.633-1.166,4.998-3.02,6.625
	c1.211,0.738,2.638,1.164,4.165,1.164c4.368,0,7.907-3.479,7.907-7.771S25.568,8.896,21.2,8.896
	C19.684,8.896,18.266,9.316,17.063,10.045L17.063,10.045z"/>
</svg>
