<?xml version="1.0" encoding="utf-8"?>
<!-- Generator: Adobe Illustrator 16.0.0, SVG Export Plug-In . SVG Version: 6.00 Build 0)  -->
<!DOCTYPE svg PUBLIC "-//W3C//DTD SVG 1.1//EN" "http://www.w3.org/Graphics/SVG/1.1/DTD/svg11.dtd">
<svg version="1.1" id="图层_1" xmlns="http://www.w3.org/2000/svg" xmlns:xlink="http://www.w3.org/1999/xlink" x="0px" y="0px"
	 width="32px" height="32px" viewBox="0 0 32 32" enable-background="new 0 0 32 32" xml:space="preserve">
<path fill="#E548ED" d="M1.978,16.006c0,7.732,6.268,14,14,14s14-6.268,14-14s-6.269-14-14-14S1.978,8.274,1.978,16.006z"/>
<path fill="#FFFFFF" d="M28.457,17.187l-4.745-3.163v1.979c-0.01,0-0.017-0.004-0.026-0.004h-1.557c-0.178,0-0.378,0-0.395-0.393
	v-3.165c0-1.113-0.739-2.768-2.771-2.768c-2.03,0-2.768,1.654-2.768,2.768v7.097c-0.017,0.416-0.218,0.416-0.395,0.416
	c-0.176,0-0.378,0-0.395-0.396v-7.118c0-1.113-0.736-2.768-2.768-2.768c-2.03,0-2.768,1.654-2.768,2.768v7.097
	c-0.019,0.416-0.221,0.416-0.395,0.416c-0.178,0-0.378,0-0.396-0.396v-3.953c0-2.031-1.655-2.77-2.768-2.77l-1.582,0.002
	c-0.655,0-1.186,0.533-1.186,1.186c0,0.657,0.532,1.188,1.186,1.188h1.56c0.417,0.017,0.417,0.218,0.417,0.395v3.953
	c0,1.114,0.738,2.769,2.769,2.769c2.03,0,2.768-1.654,2.768-2.769l-0.002-7.094c0.019-0.418,0.221-0.418,0.397-0.418
	s0.378,0,0.395,0.395v7.118c0,1.114,0.737,2.769,2.768,2.769c2.032,0,2.768-1.654,2.768-2.769v-7.094
	c0.017-0.418,0.219-0.418,0.395-0.418c0.178,0,0.379,0,0.397,0.395v3.165c0,1.111,0.736,2.768,2.768,2.768h1.58
	c0.001,0,0.001-0.004,0.003-0.004v1.981L28.457,17.187z"/>
</svg>
