<?xml version="1.0" encoding="utf-8"?>
<!-- Generator: Adobe Illustrator 16.0.0, SVG Export Plug-In . SVG Version: 6.00 Build 0)  -->
<!DOCTYPE svg PUBLIC "-//W3C//DTD SVG 1.1//EN" "http://www.w3.org/Graphics/SVG/1.1/DTD/svg11.dtd">
<svg version="1.1" id="图层_1" xmlns="http://www.w3.org/2000/svg" xmlns:xlink="http://www.w3.org/1999/xlink" x="0px" y="0px"
	 width="512px" height="512px" viewBox="0 0 512 512" enable-background="new 0 0 512 512" xml:space="preserve">
<circle fill="#E200AD" cx="256" cy="256" r="256"/>
<path fill="#FFFFFF" d="M397.629,347.644v8.332c0,23.005-18.649,41.655-41.654,41.655l0,0h-8.332c-4.601,0-8.332,3.729-8.332,8.332
	v24.992c0,4.603-3.73,8.332-8.331,8.332h-16.662c-4.602,0-8.332-3.729-8.332-8.332v-24.992c0-4.603-3.729-8.332-8.329-8.332h-16.663
	c-4.602,0-8.331,3.729-8.331,8.332v24.992c0,4.603-3.731,8.332-8.33,8.332h-16.663c-4.602,0-8.332-3.729-8.332-8.332v-24.992
	c0-4.603-3.73-8.332-8.331-8.332h-16.661c-4.602,0-8.333,3.729-8.333,8.332v24.992c0,4.603-3.729,8.332-8.331,8.332H181.02
	c-4.6,0-8.332-3.729-8.332-8.332v-24.992c0-4.603-3.729-8.332-8.331-8.332h-8.33c-23.007,0-41.655-18.649-41.655-41.655l0,0v-8.332
	c0-4.602-3.731-8.332-8.332-8.332H81.047c-4.602,0-8.331-3.729-8.331-8.33v-16.664c0-4.601,3.73-8.331,8.331-8.331h24.994
	c4.601,0,8.332-3.729,8.332-8.329v-16.663c0-4.601-3.731-8.331-8.332-8.331H81.047c-4.602,0-8.331-3.731-8.331-8.331v-16.663
	c0-4.602,3.73-8.332,8.331-8.332l0,0h24.994c4.601,0,8.332-3.73,8.332-8.33l0,0v-16.664c0-4.6-3.731-8.331-8.332-8.331l0,0H81.047
	c-4.602,0-8.331-3.729-8.331-8.33l0,0V181.02c0-4.601,3.73-8.331,8.331-8.331l0,0h24.994c4.601,0,8.332-3.729,8.332-8.331l0,0v-8.33
	c0-23.007,18.649-41.656,41.655-41.656h8.33c4.602,0,8.331-3.73,8.331-8.331l0,0V81.048c0-4.602,3.731-8.331,8.332-8.331l0,0h16.662
	c4.603,0,8.331,3.729,8.331,8.331l0,0v24.994c0,4.601,3.731,8.331,8.333,8.331l0,0h16.661c4.601,0,8.331-3.73,8.331-8.331l0,0
	V81.048c0-4.602,3.73-8.331,8.332-8.331l0,0h16.663c4.599,0,8.33,3.729,8.33,8.331v24.994c0,4.601,3.729,8.331,8.331,8.331h16.663
	c4.601,0,8.329-3.73,8.329-8.331V81.048c0-4.602,3.73-8.331,8.332-8.331h16.662c4.601,0,8.331,3.729,8.331,8.331v24.994
	c0,4.601,3.731,8.331,8.332,8.331h8.332c23.005,0,41.654,18.651,41.654,41.656l0,0v8.33c0,4.602,3.73,8.331,8.332,8.331h24.992
	c4.604,0,8.332,3.729,8.332,8.331v16.663c0,4.601-3.729,8.33-8.332,8.33h-24.992c-4.602,0-8.332,3.731-8.332,8.331v16.663
	c0,4.601,3.73,8.331,8.332,8.331h24.992c4.604,0,8.332,3.73,8.332,8.332v16.663c0,4.6-3.729,8.331-8.332,8.331h-24.992
	c-4.602,0-8.332,3.73-8.332,8.331v16.663c0,4.601,3.73,8.329,8.332,8.329h24.992c4.604,0,8.332,3.73,8.332,8.331v16.664
	c0,4.601-3.729,8.33-8.332,8.33h-24.992C401.359,339.312,397.629,343.039,397.629,347.644L397.629,347.644z M206.012,189.351
	c-9.202,0-16.663,7.458-16.663,16.661v99.974c0,9.202,7.46,16.662,16.663,16.662l0,0h99.973c9.202,0,16.662-7.458,16.662-16.662l0,0
	v-99.974c0-9.203-7.459-16.661-16.662-16.661l0,0H206.012z"/>
</svg>
