<?xml version="1.0" encoding="utf-8"?>
<!-- Generator: Adobe Illustrator 16.0.0, SVG Export Plug-In . SVG Version: 6.00 Build 0)  -->
<!DOCTYPE svg PUBLIC "-//W3C//DTD SVG 1.1//EN" "http://www.w3.org/Graphics/SVG/1.1/DTD/svg11.dtd">
<svg version="1.1" id="图层_1" xmlns="http://www.w3.org/2000/svg" xmlns:xlink="http://www.w3.org/1999/xlink" x="0px" y="0px"
	 width="32px" height="32px" viewBox="0 0 32 32" enable-background="new 0 0 32 32" xml:space="preserve">
<path fill="#F74A21" d="M16,2C8.269,2,2,8.269,2,16c0,7.73,6.269,14,14,14c7.73,0,14-6.27,14-14C30,8.269,23.73,2,16,2z
	 M20.95,22.361L16,17.416l-4.95,4.945l-1.416-1.414L14.584,16l-4.947-4.95l1.416-1.416L16,14.584l4.95-4.95l1.415,1.416L17.416,16
	l4.949,4.95L20.95,22.361z"/>
<polygon fill="#FFFFFF" points="9.634,20.947 11.05,22.361 16,17.854 20.95,22.361 22.365,20.95 17.854,15.875 22.365,11.05 
	20.95,9.634 16,14.146 11.053,9.634 9.638,11.05 14.104,16 "/>
<path fill="#1296DB" d="M25.313,29.375"/>
</svg>
