<?xml version="1.0" encoding="utf-8"?>
<!-- Generator: Adobe Illustrator 16.0.0, SVG Export Plug-In . SVG Version: 6.00 Build 0)  -->
<!DOCTYPE svg PUBLIC "-//W3C//DTD SVG 1.1//EN" "http://www.w3.org/Graphics/SVG/1.1/DTD/svg11.dtd">
<svg version="1.1" id="图层_1" xmlns="http://www.w3.org/2000/svg" xmlns:xlink="http://www.w3.org/1999/xlink" x="0px" y="0px"
	 width="32px" height="32px" viewBox="0 0 32 32" enable-background="new 0 0 32 32" xml:space="preserve">
<path fill="#1EA6E2" d="M2,16c0,7.732,6.268,14,14,14c7.73,0,14-6.268,14-14c0-7.731-6.27-14-14-14C8.268,2,2,8.269,2,16z"/>
<path fill="#FFFFFF" d="M20.463,17.07l3.962-5.461H22.18l-2.841,4.055l-2.838-4.055h-2.249l3.963,5.461l-3.963,5.46h2.247
	l2.84-4.058l2.841,4.058h2.245L20.463,17.07z"/>
<path fill="#FFFFFF" d="M13.25,7.906h-1.875l-0.25,1.719l-1.5,9.719l-2.25-4.156l-0.906-1.625l-1.563,1.063l-1.688,1.156
	l0.891,1.624l1.801-1.038l3.646,6.292l0.917,1.583l0.311-1.912l2.22-12.706h13.087V7.906H13.25z"/>
</svg>
