<?xml version="1.0" standalone="no"?><!DOCTYPE svg PUBLIC "-//W3C//DTD SVG 1.1//EN" "http://www.w3.org/Graphics/SVG/1.1/DTD/svg11.dtd"><svg t="1604556679121" class="icon" viewBox="0 0 1024 1024" version="1.1" xmlns="http://www.w3.org/2000/svg" p-id="8818" xmlns:xlink="http://www.w3.org/1999/xlink" width="512" height="512"><defs><style type="text/css"></style></defs><path d="M950.1 73.9c-12.9-12.9-33-12.9-45.9 0L73.9 904.2c-12.9 12.9-12.9 33 0 45.9 6.5 6.5 14.9 9.7 22.6 9.7s16.8-3.2 22.6-9.7l831-830.3c12.3-12.3 12.3-33 0-45.9z m-45.9 310.8L384.7 904.2c-12.9 12.9-12.9 33 0 45.9 6.5 6.5 14.9 9.7 22.6 9.7s16.8-3.2 22.6-9.7l519.5-519.5c12.9-12.9 12.9-33 0-45.9-12.2-12.9-32.9-12.9-45.2 0z m0 310.2L694.9 904.2c-12.9 12.9-12.9 33 0 45.9 6.5 6.5 14.9 9.7 22.6 9.7s16.8-3.2 22.6-9.7l209.4-209.4c12.9-12.9 12.9-33 0-45.9-12.3-12.9-33-12.9-45.3 0.1z" p-id="8819" data-spm-anchor-id="a313x.7781069.0.i0" class="selected" fill="#333"></path></svg>