<?xml version="1.0" encoding="utf-8"?>
<!-- Generator: Adobe Illustrator 16.0.0, SVG Export Plug-In . SVG Version: 6.00 Build 0)  -->
<!DOCTYPE svg PUBLIC "-//W3C//DTD SVG 1.1//EN" "http://www.w3.org/Graphics/SVG/1.1/DTD/svg11.dtd">
<svg version="1.1" id="图层_1" xmlns="http://www.w3.org/2000/svg" xmlns:xlink="http://www.w3.org/1999/xlink" x="0px" y="0px"
	 width="32px" height="32px" viewBox="0 0 32 32" enable-background="new 0 0 32 32" xml:space="preserve">
<path fill="#1EA6E2" d="M2,16c0,7.732,6.268,14,14,14c7.73,0,14-6.268,14-14c0-7.731-6.27-14-14-14C8.268,2,2,8.269,2,16z"/>
<rect x="6.698" y="9.187" fill="#FFFFFF" width="1.883" height="13.625"/>
<polygon fill="#FFFFFF" points="22.583,22.811 22.583,9.187 24.458,9.187 24.458,22.813 22.583,22.813 "/>
<g>
	<path fill="#FFFFFF" d="M21.084,11.016l-3.188,4.678l3.168,4.979h-3.433l-1.396-2.604c-0.113-0.207-0.249-0.5-0.405-0.878h-0.037
		c-0.094,0.264-0.224,0.547-0.387,0.849l-1.406,2.631h-3.422l3.263-4.809l-3.065-4.849h3.451l1.377,2.708
		c0.182,0.358,0.312,0.661,0.386,0.904h0.038c0.101-0.295,0.236-0.604,0.406-0.924l1.406-2.688h3.244V11.016z"/>
</g>
</svg>
