<?xml version="1.0" encoding="utf-8"?>
<!-- Generator: Adobe Illustrator 16.0.0, SVG Export Plug-In . SVG Version: 6.00 Build 0)  -->
<!DOCTYPE svg PUBLIC "-//W3C//DTD SVG 1.1//EN" "http://www.w3.org/Graphics/SVG/1.1/DTD/svg11.dtd">
<svg version="1.1" id="图层_1" xmlns="http://www.w3.org/2000/svg" xmlns:xlink="http://www.w3.org/1999/xlink" x="0px" y="0px"
	 width="32px" height="32px" viewBox="0 0 32 32" enable-background="new 0 0 32 32" xml:space="preserve">
<path fill="#1296DB" d="M2,16c0,7.732,6.268,14,14,14c7.73,0,14-6.268,14-14c0-7.731-6.27-14-14-14C8.268,2,2,8.269,2,16z"/>
<g>
	<path fill="#FFFFFF" d="M12.391,20.549h-1.944l-0.563-2.025H7.067L6.51,20.549H4.577l2.883-9.103h2.115L12.391,20.549z
		 M9.475,16.949L8.625,13.89c-0.063-0.229-0.106-0.501-0.132-0.819H8.448c-0.018,0.267-0.064,0.531-0.138,0.793l-0.862,3.084H9.475z
		"/>
	<path fill="#FFFFFF" d="M19.973,11.446l-2.728,9.103h-2.021l-2.695-9.103h1.921l1.651,6.335c0.089,0.343,0.142,0.646,0.16,0.908
		h0.033c0.026-0.284,0.083-0.596,0.172-0.934l1.64-6.31H19.973z"/>
	<path fill="#FFFFFF" d="M27.423,19.939c-0.772,0.512-1.733,0.768-2.883,0.768c-1.273,0-2.277-0.404-3.012-1.215
		s-1.103-1.927-1.103-3.349c0-1.43,0.401-2.596,1.204-3.498s1.87-1.352,3.203-1.352c0.84,0,1.579,0.133,2.22,0.4v1.923
		c-0.61-0.406-1.358-0.609-2.241-0.609c-0.74,0-1.344,0.276-1.809,0.828c-0.466,0.553-0.699,1.29-0.699,2.212
		c0,0.935,0.209,1.659,0.627,2.17c0.418,0.513,0.982,0.769,1.692,0.769c0.428,0,0.766-0.069,1.017-0.21V17h-1.585v-1.637h3.368
		V19.939z"/>
</g>
</svg>
