<?xml version="1.0" encoding="utf-8"?>
<!-- Generator: Adobe Illustrator 23.0.0, SVG Export Plug-In . SVG Version: 6.00 Build 0)  -->
<svg version="1.1" id="图层_1" xmlns="http://www.w3.org/2000/svg" xmlns:xlink="http://www.w3.org/1999/xlink" x="0px" y="0px"
	 viewBox="0 0 32 32" style="enable-background:new 0 0 32 32;" xml:space="preserve">
<style type="text/css">
	.st0{fill:#FFFFFF;}
	.st1{fill:#33DB77;}
	.st2{fill:#EEEEEE;}
	.st3{fill:#00ACC1;}
</style>
<path class="st0" d="M20.5,4.4h-9V3h9V4.4z M16.7,4.4h-1.5v0.9h1.5V4.4z"/>
<path class="st1" d="M5.9,15.2c0,5.6,4.5,10,10.1,10c5.6,0,10-4.5,10-10.1l0,0c0-5.6-4.5-10-10.1-10S5.9,9.6,5.9,15.2L5.9,15.2z"/>
<path class="st2" d="M7.9,15.2c0,4.5,3.6,8.1,8.1,8.1s8.1-3.6,8.1-8.1S20.4,7.1,16,7.1S7.9,10.7,7.9,15.2L7.9,15.2z"/>
<path d="M15.5,9.2h1v6.6h-1V9.2z"/>
<path d="M21.1,15.2l0,1.2l-4.6,0l0-1.2L21.1,15.2z"/>
<path d="M15,15.8c0,0.5,0.5,1,1,1c0.5,0,1-0.5,1-1s-0.5-1-1-1S15,15.3,15,15.8z"/>
<path class="st3" d="M15.5,15.8c0,0.3,0.2,0.5,0.5,0.5c0.3,0,0.5-0.2,0.5-0.5l0,0c0-0.3-0.2-0.5-0.5-0.5
	C15.7,15.3,15.5,15.5,15.5,15.8L15.5,15.8z"/>
</svg>
