<?xml version="1.0" encoding="utf-8"?>
<!-- Generator: Adobe Illustrator 16.0.0, SVG Export Plug-In . SVG Version: 6.00 Build 0)  -->
<!DOCTYPE svg PUBLIC "-//W3C//DTD SVG 1.1//EN" "http://www.w3.org/Graphics/SVG/1.1/DTD/svg11.dtd">
<svg version="1.1" id="图层_1" xmlns="http://www.w3.org/2000/svg" xmlns:xlink="http://www.w3.org/1999/xlink" x="0px" y="0px"
	 width="32px" height="32px" viewBox="0 0 32 32" enable-background="new 0 0 32 32" xml:space="preserve">
<path fill="#C92079" d="M2,16c0,7.732,6.268,14,14,14c7.73,0,14-6.268,14-14c0-7.731-6.27-14-14-14C8.268,2,2,8.269,2,16z"/>
<path fill="none" d="M17.563,14.672c-0.023,0.061-0.016,0.145-0.016,0.219"/>
<path fill="#F7F8F9" d="M9.256,21.243c0,0.547,0.383,0.719,0.758,0.688l7.46-0.057v2.465c0,0.549,0.685,0.959,1.233,0.549
	l3.833-3.836c0.272-0.273,0.272-0.685,0-0.958l-3.833-3.835c-0.549-0.548-1.233-0.137-1.233,0.411v2.465H9.941
	c-0.411,0-0.685,0.274-0.685,0.687V21.243z"/>
<g>
	<path fill="#FFFFFF" d="M19.779,15.125h-1.91l-3.463-5.279c-0.203-0.309-0.344-0.541-0.422-0.697h-0.023
		c0.031,0.297,0.047,0.75,0.047,1.359v4.617h-1.787V6.723h2.039l3.334,5.115c0.152,0.23,0.293,0.459,0.422,0.686h0.023
		c-0.031-0.195-0.047-0.58-0.047-1.154V6.723h1.787V15.125z"/>
</g>
</svg>
