<?xml version="1.0" encoding="utf-8"?>
<!-- Generator: Adobe Illustrator 16.0.0, SVG Export Plug-In . SVG Version: 6.00 Build 0)  -->
<!DOCTYPE svg PUBLIC "-//W3C//DTD SVG 1.1//EN" "http://www.w3.org/Graphics/SVG/1.1/DTD/svg11.dtd">
<svg version="1.1" id="图层_1" xmlns="http://www.w3.org/2000/svg" xmlns:xlink="http://www.w3.org/1999/xlink" x="0px" y="0px"
	 width="32px" height="32px" viewBox="0 0 32 32" enable-background="new 0 0 32 32" xml:space="preserve">
<path fill="#C92079" d="M2,16c0,7.732,6.268,14,14,14c7.73,0,14-6.268,14-14c0-7.731-6.27-14-14-14C8.268,2,2,8.269,2,16z"/>
<path fill="none" d="M17.563,14.672c-0.023,0.061-0.016,0.145-0.016,0.219"/>
<path fill="#F7F8F9" d="M9.256,21.243c0,0.547,0.383,0.719,0.758,0.688l7.46-0.057v2.465c0,0.549,0.685,0.959,1.233,0.549
	l3.833-3.836c0.272-0.273,0.272-0.685,0-0.958l-3.833-3.835c-0.549-0.548-1.233-0.137-1.233,0.411v2.465H9.941
	c-0.411,0-0.685,0.274-0.685,0.687V21.243z"/>
<g>
	<path fill="#FFFFFF" d="M18.681,14.938h-5.314v-1.465h1.74V8.24l-1.787,0.387v-1.5l3.633-0.732v7.078h1.729V14.938z"/>
</g>
</svg>
