<?xml version="1.0" encoding="utf-8"?>
<!-- Generator: Adobe Illustrator 16.0.0, SVG Export Plug-In . SVG Version: 6.00 Build 0)  -->
<!DOCTYPE svg PUBLIC "-//W3C//DTD SVG 1.1//EN" "http://www.w3.org/Graphics/SVG/1.1/DTD/svg11.dtd">
<svg version="1.1" id="图层_1" xmlns="http://www.w3.org/2000/svg" xmlns:xlink="http://www.w3.org/1999/xlink" x="0px" y="0px"
	 width="32px" height="32px" viewBox="0 0 32 32" enable-background="new 0 0 32 32" xml:space="preserve">
<path fill="#1EA6E2" d="M2,16c0,7.732,6.268,14,14,14c7.73,0,14-6.268,14-14c0-7.731-6.27-14-14-14C8.268,2,2,8.269,2,16z"/>
<g>
	<path fill="#F7F8F9" d="M12.501,19.852h-1.714v-4.608c0-0.498,0.021-1.047,0.064-1.649h-0.043c-0.089,0.473-0.17,0.813-0.241,1.021
		l-1.805,5.237H7.345l-1.837-5.183c-0.05-0.14-0.131-0.498-0.242-1.074H5.218c0.046,0.759,0.07,1.425,0.07,1.998v4.259H3.725v-7.702
		h2.541l1.574,4.565c0.125,0.365,0.217,0.732,0.274,1.102h0.031c0.098-0.427,0.199-0.797,0.307-1.112l1.574-4.555h2.476V19.852z"/>
	<path fill="#F7F8F9" d="M21.025,19.852h-1.891l-0.549-1.713h-2.738l-0.543,1.713h-1.88l2.804-7.702h2.057L21.025,19.852z
		 M18.189,16.807l-0.828-2.589c-0.061-0.193-0.104-0.424-0.129-0.693h-0.043c-0.018,0.226-0.063,0.449-0.134,0.671l-0.838,2.611
		H18.189z"/>
	<path fill="#F7F8F9" d="M28.275,19.852h-2.057l-1.326-2.508c-0.051-0.094-0.103-0.266-0.156-0.516h-0.021
		c-0.025,0.117-0.084,0.297-0.178,0.537l-1.332,2.486h-2.067L23.592,16l-2.244-3.851h2.11l1.101,2.31
		c0.086,0.183,0.163,0.399,0.231,0.65h0.021c0.043-0.15,0.124-0.374,0.241-0.671l1.225-2.288h1.934l-2.309,3.819L28.275,19.852z"/>
</g>
</svg>
