<?xml version="1.0" encoding="utf-8"?>
<!-- Generator: Adobe Illustrator 16.0.0, SVG Export Plug-In . SVG Version: 6.00 Build 0)  -->
<!DOCTYPE svg PUBLIC "-//W3C//DTD SVG 1.1//EN" "http://www.w3.org/Graphics/SVG/1.1/DTD/svg11.dtd">
<svg version="1.1" id="图层_1" xmlns="http://www.w3.org/2000/svg" xmlns:xlink="http://www.w3.org/1999/xlink" x="0px" y="0px"
	 width="512px" height="512px" viewBox="0 0 512 512" enable-background="new 0 0 512 512" xml:space="preserve">
<path fill="#FFFFFF" d="M430.079,368.641v10.239c0,28.277-22.923,51.2-51.199,51.2l0,0h-10.24c-5.655,0-10.24,4.585-10.24,10.24
	v30.72c0,5.655-4.585,10.24-10.24,10.24H327.68c-5.655,0-10.24-4.585-10.24-10.24v-30.72c0-5.655-4.585-10.24-10.24-10.24H286.72
	c-5.655,0-10.24,4.585-10.24,10.24v30.72c0,5.655-4.584,10.24-10.239,10.24h-20.48c-5.655,0-10.24-4.585-10.24-10.24v-30.72
	c0-5.655-4.584-10.24-10.24-10.24H204.8c-5.655,0-10.24,4.585-10.24,10.24v30.72c0,5.655-4.584,10.24-10.24,10.24H163.84
	c-5.655,0-10.24-4.585-10.24-10.24v-30.72c0-5.655-4.584-10.24-10.24-10.24H133.12c-28.277,0-51.2-22.923-51.2-51.2l0,0v-10.239
	c0-5.656-4.585-10.24-10.24-10.24H40.96c-5.655,0-10.24-4.585-10.24-10.24v-20.48c0-5.655,4.585-10.24,10.24-10.24h30.72
	c5.655,0,10.24-4.584,10.24-10.239v-20.479c0-5.656-4.585-10.24-10.24-10.24H40.96c-5.655,0-10.24-4.585-10.24-10.24v-20.48
	c0-5.656,4.585-10.24,10.24-10.24l0,0h30.72c5.655,0,10.24-4.584,10.24-10.24l0,0V204.8c0-5.655-4.585-10.24-10.24-10.24l0,0H40.96
	c-5.655,0-10.24-4.584-10.24-10.24l0,0v-20.48c0-5.655,4.585-10.24,10.24-10.24l0,0h30.72c5.655,0,10.24-4.584,10.24-10.24l0,0
	v-10.24c0-28.277,22.923-51.2,51.2-51.2h10.239c5.656,0,10.24-4.584,10.24-10.24l0,0V40.96c0-5.655,4.585-10.24,10.24-10.24l0,0
	h20.479c5.656,0,10.24,4.584,10.24,10.24l0,0v30.72c0,5.655,4.585,10.24,10.24,10.24l0,0h20.479c5.656,0,10.24-4.584,10.24-10.24
	l0,0V40.96c0-5.655,4.585-10.24,10.24-10.24l0,0h20.48c5.655,0,10.239,4.584,10.239,10.24v30.72c0,5.655,4.585,10.24,10.24,10.24
	h20.479c5.655,0,10.24-4.584,10.24-10.24V40.96c0-5.655,4.585-10.24,10.24-10.24h20.479c5.655,0,10.24,4.584,10.24,10.24v30.72
	c0,5.655,4.585,10.24,10.24,10.24h10.24c28.276,0,51.199,22.923,51.199,51.2l0,0v10.24c0,5.656,4.585,10.24,10.24,10.24h30.72
	c5.656,0,10.24,4.584,10.24,10.24v20.48c0,5.656-4.584,10.24-10.24,10.24h-30.72c-5.655,0-10.24,4.584-10.24,10.24v20.48
	c0,5.656,4.585,10.24,10.24,10.24h30.72c5.656,0,10.24,4.584,10.24,10.24v20.48c0,5.655-4.584,10.24-10.24,10.24h-30.72
	c-5.655,0-10.24,4.584-10.24,10.24V307.2c0,5.655,4.585,10.239,10.24,10.239h30.72c5.656,0,10.24,4.585,10.24,10.24v20.48
	c0,5.655-4.584,10.24-10.24,10.24h-30.72C434.664,358.4,430.079,362.984,430.079,368.641L430.079,368.641z M194.56,174.08
	c-11.311,0-20.479,9.169-20.479,20.48v122.879c0,11.312,9.169,20.48,20.479,20.48l0,0h122.88c11.311,0,20.48-9.169,20.48-20.48l0,0
	V194.56c0-11.311-9.17-20.48-20.48-20.48l0,0H194.56z"/>
</svg>
