<?xml version="1.0" encoding="utf-8"?>
<!-- Generator: Adobe Illustrator 16.0.0, SVG Export Plug-In . SVG Version: 6.00 Build 0)  -->
<!DOCTYPE svg PUBLIC "-//W3C//DTD SVG 1.1//EN" "http://www.w3.org/Graphics/SVG/1.1/DTD/svg11.dtd">
<svg version="1.1" id="图层_1" xmlns="http://www.w3.org/2000/svg" xmlns:xlink="http://www.w3.org/1999/xlink" x="0px" y="0px"
	 width="32px" height="32px" viewBox="0 0 32 32" enable-background="new 0 0 32 32" xml:space="preserve">
<path fill="#B42EE5" d="M2,16c0,7.732,6.268,14,14,14c7.73,0,14-6.268,14-14c0-7.731-6.27-14-14-14C8.268,2,2,8.268,2,16z"/>
<g>
	<path fill="#FFFFFF" d="M11.865,15.513c-0.996,0-1.798-0.316-2.407-0.947s-0.913-1.481-0.913-2.549c0-1.166,0.324-2.09,0.972-2.773
		s1.512-1.025,2.593-1.025c1.035,0,1.844,0.309,2.427,0.928s0.874,1.488,0.874,2.607c0,1.152-0.322,2.067-0.967,2.744
		S12.939,15.513,11.865,15.513z M22.09,8.413l-9.122,14.004h-2.383l9.102-14.004H22.09z M12.05,9.937
		c-0.951,0-1.426,0.661-1.426,1.982c0,1.25,0.453,1.875,1.357,1.875c0.924,0,1.387-0.651,1.387-1.953
		C13.369,10.571,12.929,9.937,12.05,9.937z M20.586,22.612c-0.996,0-1.799-0.315-2.408-0.947c-0.607-0.632-0.912-1.481-0.912-2.549
		c0-1.165,0.324-2.09,0.971-2.773c0.648-0.684,1.512-1.025,2.594-1.025c1.041,0,1.852,0.306,2.432,0.918
		c0.578,0.612,0.869,1.478,0.869,2.598c0,1.152-0.322,2.07-0.967,2.754S21.66,22.612,20.586,22.612z M20.742,17.036
		c-0.945,0-1.416,0.661-1.416,1.982c0,1.25,0.459,1.875,1.377,1.875c0.924,0,1.387-0.651,1.387-1.953
		c0-0.605-0.125-1.074-0.371-1.406C21.471,17.202,21.145,17.036,20.742,17.036z"/>
</g>
</svg>
