<?xml version="1.0" encoding="utf-8"?>
<!-- Generator: Adobe Illustrator 16.0.0, SVG Export Plug-In . SVG Version: 6.00 Build 0)  -->
<!DOCTYPE svg PUBLIC "-//W3C//DTD SVG 1.1//EN" "http://www.w3.org/Graphics/SVG/1.1/DTD/svg11.dtd">
<svg version="1.1" id="图层_1" xmlns="http://www.w3.org/2000/svg" xmlns:xlink="http://www.w3.org/1999/xlink" x="0px" y="0px"
	 width="32px" height="32px" viewBox="0 0 32 32" enable-background="new 0 0 32 32" xml:space="preserve">
<path fill="#A85EEF" d="M16.11,23.479c-1.446,0.982-3.193,1.557-5.074,1.557C6.045,25.036,2,20.991,2,16.001
	c0-4.992,4.045-9.037,9.036-9.037c1.881,0,3.628,0.575,5.074,1.558c1.446-0.983,3.192-1.558,5.074-1.558
	c4.99,0,9.036,4.044,9.036,9.037c0,4.99-4.046,9.035-9.036,9.035C19.303,25.036,17.557,24.462,16.11,23.479z M21.185,23.851
	c4.335,0,7.851-3.514,7.851-7.85c0-4.337-3.516-7.851-7.851-7.851c-4.337,0-7.851,3.514-7.851,7.851
	C13.334,20.337,16.848,23.851,21.185,23.851z"/>
</svg>
