<?xml version="1.0" encoding="utf-8"?>
<!-- Generator: Adobe Illustrator 16.0.0, SVG Export Plug-In . SVG Version: 6.00 Build 0)  -->
<!DOCTYPE svg PUBLIC "-//W3C//DTD SVG 1.1//EN" "http://www.w3.org/Graphics/SVG/1.1/DTD/svg11.dtd">
<svg version="1.1" id="图层_1" xmlns="http://www.w3.org/2000/svg" xmlns:xlink="http://www.w3.org/1999/xlink" x="0px" y="0px"
	 width="32px" height="32px" viewBox="0 0 32 32" enable-background="new 0 0 32 32" xml:space="preserve">
<path fill="#A85EEF" d="M2,16c0,7.732,6.268,14,14,14c7.73,0,14-6.268,14-14c0-7.731-6.27-14-14-14C8.268,2,2,8.269,2,16z"/>
<g>
	<polygon fill="#FFFFFF" points="13.265,17.645 9.125,17.645 9.125,20.511 11.636,20.511 	"/>
	<polygon fill="#FFFFFF" points="16.764,11.489 9.125,11.489 9.125,14.383 15.119,14.383 	"/>
	<polygon fill="#FFFFFF" points="18.721,14.383 22.875,14.383 22.875,11.489 20.365,11.489 	"/>
	<polygon fill="#FFFFFF" points="15.238,20.511 22.875,20.511 22.875,17.645 16.867,17.645 	"/>
</g>
<rect x="5.281" y="14.876" transform="matrix(0.4941 -0.8694 0.8694 0.4941 -5.8164 22.0043)" fill="#FFFFFF" width="21.439" height="2.248"/>
</svg>
