<?xml version="1.0" encoding="utf-8"?>
<!-- Generator: Adobe Illustrator 16.0.0, SVG Export Plug-In . SVG Version: 6.00 Build 0)  -->
<!DOCTYPE svg PUBLIC "-//W3C//DTD SVG 1.1//EN" "http://www.w3.org/Graphics/SVG/1.1/DTD/svg11.dtd">
<svg version="1.1" id="图层_1" xmlns="http://www.w3.org/2000/svg" xmlns:xlink="http://www.w3.org/1999/xlink" x="0px" y="0px"
	 width="32px" height="32px" viewBox="0 0 32 32" enable-background="new 0 0 32 32" xml:space="preserve">
<path fill="#A85EEF" d="M15.204,24.688c-1.247,0.648-2.664,1.018-4.167,1.018C6.045,25.704,2,21.656,2,16.667
	c0-4.991,4.045-9.037,9.036-9.037c1.503,0,2.921,0.367,4.167,1.017c-2.384,1.86-3.917,4.761-3.917,8.02
	C11.286,19.925,12.819,22.825,15.204,24.688z M16.365,23.964c2.246-1.644,3.707-4.301,3.707-7.297c0-2.998-1.461-5.655-3.707-7.299
	c-2.302,1.608-3.809,4.277-3.809,7.299C12.557,19.688,14.063,22.355,16.365,23.964z M17.184,8.57
	c1.211-0.602,2.575-0.939,4.018-0.939c4.992,0,9.037,4.045,9.037,9.037c0,4.989-4.045,9.037-9.037,9.037
	c-1.441,0-2.807-0.341-4.018-0.941c2.442-1.856,4.018-4.791,4.018-8.096C21.2,13.363,19.626,10.427,17.184,8.57z"/>
</svg>
