<?xml version="1.0" encoding="utf-8"?>
<!-- Generator: Adobe Illustrator 16.0.0, SVG Export Plug-In . SVG Version: 6.00 Build 0)  -->
<!DOCTYPE svg PUBLIC "-//W3C//DTD SVG 1.1//EN" "http://www.w3.org/Graphics/SVG/1.1/DTD/svg11.dtd">
<svg version="1.1" id="图层_1" xmlns="http://www.w3.org/2000/svg" xmlns:xlink="http://www.w3.org/1999/xlink" x="0px" y="0px"
	 width="32px" height="32px" viewBox="0 0 32 32" enable-background="new 0 0 32 32" xml:space="preserve">
<path fill="#C92079" d="M2,16c0,7.732,6.268,14,14,14c7.73,0,14-6.268,14-14c0-7.731-6.27-14-14-14C8.268,2,2,8.269,2,16z"/>
<path fill="none" d="M17.563,14.672c-0.023,0.061-0.016,0.145-0.016,0.219"/>
<path fill="#FFFFFF" d="M17.546,17.252v-2.697l-7.579,0.028"/>
<path fill="#FFFFFF" d="M18.108,14.555l-7.579,0.028v-4.201l7.595-0.006V7.727H10.53H7.836v6.855c0,0,0.017,0.019-1.187,0.027
	c-1.828,0.013-1.922,2.612-0.078,2.622c0.703,0.004,1.265-0.002,1.265-0.002v6.857h2.692l7.58-0.055v-2.584L10.53,21.43V17.24
	l7.579,0.012V14.555z M24.594,10.391h-5.731V7.727h5.731V10.391z M23.375,17.235h-4.4v-2.664h4.4V17.235z M22.084,24.055h-3.109
	v-2.664h3.109V24.055z"/>
</svg>
