<?xml version="1.0" standalone="no"?><!DOCTYPE svg PUBLIC "-//W3C//DTD SVG 1.1//EN" "http://www.w3.org/Graphics/SVG/1.1/DTD/svg11.dtd"><svg t="1617076249804" class="icon" viewBox="0 0 1024 1024" version="1.1" xmlns="http://www.w3.org/2000/svg" p-id="5035" xmlns:xlink="http://www.w3.org/1999/xlink" width="100" height="100"><defs><style type="text/css"></style></defs><path d="M56.888889 512.056889a455.111111 455.111111 0 1 0 910.222222 0A455.111111 455.111111 0 0 0 56.888889 512z" fill="#1296db" p-id="5036" data-spm-anchor-id="a313x.7781069.0.i1" class="selected"></path><path d="M717.539556 435.655111c-17.692444 0-29.468444-11.719111-29.468445-26.396444 0-14.734222 14.734222-26.510222 29.468445-26.510223 17.635556 0 29.354667 11.776 29.354666 26.510223 0 11.662222-14.734222 26.396444-29.354666 26.396444z m-49.948445 214.357333c-49.891556 91.136-138.012444 187.960889-261.290667 144.042667-120.376889-41.244444-17.692444-129.251556-17.692444-129.251555s50.005333-52.963556-38.172444-117.646223c0 0-49.891556-52.792889 5.916444-96.881777 55.751111-43.975111 226.076444-49.891556 296.675556-11.776 67.470222 41.130667 64.512 120.433778 14.563555 211.512888zM277.162667 356.408889c0-26.453333 23.495111-50.005333 55.751111-50.005333 29.411556 0 55.751111 23.552 55.751111 50.005333 0 26.396444-23.495111 49.948444-55.751111 49.948444s-55.751111-20.650667-55.751111-49.948444z m179.143111-79.303111c23.381333 0 43.975111 17.578667 43.975111 38.172444 0 20.536889-20.593778 38.172444-43.975111 38.172445-23.495111 0-44.088889-17.635556-44.088889-38.172445 0-20.593778 17.635556-38.172444 44.088889-38.172444z m99.669333 11.662222c20.650667 0 35.214222 14.734222 35.214222 32.369778s-14.563556 32.256-35.214222 32.256c-20.423111 0-35.157333-14.620444-35.157333-32.256 2.958222-17.578667 17.692444-32.369778 35.157333-32.369778z m91.079111 29.411556c17.692444 0 32.369778 11.776 32.369778 29.411555 0 14.734222-14.734222 29.411556-32.369778 29.411556s-32.199111-11.776-32.199111-29.411556 14.506667-29.411556 32.199111-29.411555z" fill="#FEFFFF" p-id="5037"></path></svg>