<?xml version="1.0" standalone="no"?><!DOCTYPE svg PUBLIC "-//W3C//DTD SVG 1.1//EN" "http://www.w3.org/Graphics/SVG/1.1/DTD/svg11.dtd"><svg t="1596896956586" class="icon" viewBox="0 0 1024 1024" version="1.1" xmlns="http://www.w3.org/2000/svg" p-id="12812" width="32" height="32" xmlns:xlink="http://www.w3.org/1999/xlink"><defs><style type="text/css"></style></defs><path d="M511.3 512.2m-448 0a448 448 0 1 0 896 0 448 448 0 1 0-896 0Z" fill="#1296db" p-id="12813"></path><path d="M735.2 464.4H559.1V288.3c0-26.3-21.5-47.8-47.8-47.8-26.3 0-47.8 21.5-47.8 47.8v176.1h-176c-26.3 0-47.8 21.5-47.8 47.8 0 26.3 21.5 47.8 47.8 47.8h176.1v176.1c0 26.3 21.5 47.8 47.8 47.8 26.3 0 47.8-21.5 47.8-47.8V560h176.1c26.3 0 47.8-21.5 47.8-47.8-0.1-26.3-21.6-47.8-47.9-47.8z" fill="#ffffff" p-id="12814" data-spm-anchor-id="a313x.7781069.0.i29" class="selected"></path></svg>