<?xml version="1.0" encoding="utf-8"?>
<!-- Generator: Adobe Illustrator 23.0.0, SVG Export Plug-In . SVG Version: 6.00 Build 0)  -->
<svg version="1.1" id="图层_1" xmlns="http://www.w3.org/2000/svg" xmlns:xlink="http://www.w3.org/1999/xlink" x="0px" y="0px"
	 viewBox="0 0 32 32" style="enable-background:new 0 0 32 32;" xml:space="preserve">
<style type="text/css">
	.st0{fill:#E503C5;}
	.st1{fill:#FFFFFF;}
</style>
<path class="st0" d="M0,16c0,8.8,7.2,16,16,16s16-7.2,16-16S24.8,0,16,0S0,7.2,0,16z"/>
<g>
	<path class="st1" d="M17.3,17.5v-3H5.7c-0.8,0-1.4,0.5-1.4,1.3l0,0v0.5c0,0.7,0.6,1.2,1.4,1.2l0,0H17.3z"/>
	<path class="st1" d="M19.3,22.3l9-5.2c0.6-0.4,0.8-1.1,0.4-1.7c-0.1-0.2-0.2-0.3-0.4-0.4l-9-5.4c-0.6-0.4-1.5-0.2-1.9,0.4
		c-0.2,0.2-0.2,0.5-0.2,0.7v10.6c0,0.7,0.6,1.3,1.4,1.3C18.9,22.5,19.1,22.5,19.3,22.3L19.3,22.3z"/>
</g>
</svg>
