<?xml version="1.0" encoding="utf-8"?>
<!-- Generator: Adobe Illustrator 23.0.0, SVG Export Plug-In . SVG Version: 6.00 Build 0)  -->
<svg version="1.1" id="图层_1" xmlns="http://www.w3.org/2000/svg" xmlns:xlink="http://www.w3.org/1999/xlink" x="0px" y="0px"
	 viewBox="0 0 32 32" style="enable-background:new 0 0 32 32;" xml:space="preserve">
<style type="text/css">
	.st0{fill:#FFFFFF;}
</style>
<path class="st0" d="M16,18v-4H1.7C0.7,14,0,14.7,0,15.7c0,0,0,0,0,0v0.7C0,17.3,0.7,18,1.7,18c0,0,0,0,0,0H16z"/>
<path class="st0" d="M18.5,24.4l11.2-6.9c0.8-0.5,1-1.5,0.5-2.3c-0.1-0.2-0.3-0.4-0.5-0.5L18.6,7.6c-0.8-0.5-1.8-0.3-2.3,0.5
	C16.1,8.4,16,8.7,16,9v14c0,0.9,0.7,1.7,1.7,1.7C18,24.7,18.3,24.6,18.5,24.4L18.5,24.4z"/>
</svg>
