<?xml version="1.0" standalone="no"?><!DOCTYPE svg PUBLIC "-//W3C//DTD SVG 1.1//EN" "http://www.w3.org/Graphics/SVG/1.1/DTD/svg11.dtd"><svg t="1691319925086" class="icon" viewBox="0 0 1024 1024" version="1.1" xmlns="http://www.w3.org/2000/svg" p-id="6535" xmlns:xlink="http://www.w3.org/1999/xlink" width="30" height="30"><path d="M860.16 737.28v20.48a102.4 102.4 0 0 1-102.4 102.4h-20.48a20.48 20.48 0 0 0-20.48 20.48v61.44a20.48 20.48 0 0 1-20.48 20.48h-40.96a20.48 20.48 0 0 1-20.48-20.48v-61.44a20.48 20.48 0 0 0-20.48-20.48h-40.96a20.48 20.48 0 0 0-20.48 20.48v61.44a20.48 20.48 0 0 1-20.48 20.48h-40.96a20.48 20.48 0 0 1-20.48-20.48v-61.44a20.48 20.48 0 0 0-20.48-20.48h-40.96a20.48 20.48 0 0 0-20.48 20.48v61.44a20.48 20.48 0 0 1-20.48 20.48h-40.96a20.48 20.48 0 0 1-20.48-20.48v-61.44a20.48 20.48 0 0 0-20.48-20.48h-20.48a102.4 102.4 0 0 1-102.4-102.4v-20.48a20.48 20.48 0 0 0-20.48-20.48H81.92a20.48 20.48 0 0 1-20.48-20.48v-40.96a20.48 20.48 0 0 1 20.48-20.48h61.44a20.48 20.48 0 0 0 20.48-20.48v-40.96a20.48 20.48 0 0 0-20.48-20.48H81.92a20.48 20.48 0 0 1-20.48-20.48v-40.96a20.48 20.48 0 0 1 20.48-20.48h61.44a20.48 20.48 0 0 0 20.48-20.48v-40.96a20.48 20.48 0 0 0-20.48-20.48H81.92a20.48 20.48 0 0 1-20.48-20.48v-40.96a20.48 20.48 0 0 1 20.48-20.48h61.44a20.48 20.48 0 0 0 20.48-20.48v-20.48a102.4 102.4 0 0 1 102.4-102.4h20.48a20.48 20.48 0 0 0 20.48-20.48V81.92a20.48 20.48 0 0 1 20.48-20.48h40.96a20.48 20.48 0 0 1 20.48 20.48v61.44a20.48 20.48 0 0 0 20.48 20.48h40.96a20.48 20.48 0 0 0 20.48-20.48V81.92a20.48 20.48 0 0 1 20.48-20.48h40.96a20.48 20.48 0 0 1 20.48 20.48v61.44a20.48 20.48 0 0 0 20.48 20.48h40.96a20.48 20.48 0 0 0 20.48-20.48V81.92a20.48 20.48 0 0 1 20.48-20.48h40.96a20.48 20.48 0 0 1 20.48 20.48v61.44a20.48 20.48 0 0 0 20.48 20.48h20.48a102.4 102.4 0 0 1 102.4 102.4v20.48a20.48 20.48 0 0 0 20.48 20.48h61.44a20.48 20.48 0 0 1 20.48 20.48v40.96a20.48 20.48 0 0 1-20.48 20.48h-61.44a20.48 20.48 0 0 0-20.48 20.48v40.96a20.48 20.48 0 0 0 20.48 20.48h61.44a20.48 20.48 0 0 1 20.48 20.48v40.96a20.48 20.48 0 0 1-20.48 20.48h-61.44a20.48 20.48 0 0 0-20.48 20.48v40.96a20.48 20.48 0 0 0 20.48 20.48h61.44a20.48 20.48 0 0 1 20.48 20.48v40.96a20.48 20.48 0 0 1-20.48 20.48h-61.44a20.48 20.48 0 0 0-20.48 20.48zM389.12 348.16a40.96 40.96 0 0 0-40.96 40.96v245.76a40.96 40.96 0 0 0 40.96 40.96h245.76a40.96 40.96 0 0 0 40.96-40.96V389.12a40.96 40.96 0 0 0-40.96-40.96H389.12z" p-id="6536" fill="#1296db"></path></svg>