<?xml version="1.0" standalone="no"?><!DOCTYPE svg PUBLIC "-//W3C//DTD SVG 1.1//EN" "http://www.w3.org/Graphics/SVG/1.1/DTD/svg11.dtd"><svg t="1596895359166" class="icon" viewBox="0 0 1024 1024" version="1.1" xmlns="http://www.w3.org/2000/svg" p-id="5357" xmlns:xlink="http://www.w3.org/1999/xlink" width="32" height="32"><defs><style type="text/css"></style></defs><path d="M512 512m-512 0a512 512 0 1 0 1024 0 512 512 0 1 0-1024 0Z" fill="#2258F3" p-id="5358"></path><path d="M490.057143 387.657143V310.857143c-7.314286-32.914286-32.914286-10.971429-32.914286-10.971429l-182.857143 157.257143c-40.228571 29.257143-3.657143 47.542857-3.657143 47.542857l179.2 153.6c36.571429 25.6 40.228571-14.628571 40.228572-14.628571v-69.485714c182.857143-54.857143 256 168.228571 256 168.228571 7.314286 10.971429 10.971429 0 10.971428 0 73.142857-340.114286-266.971429-354.742857-266.971428-354.742857z" fill="#FFFFFF" p-id="5359"></path></svg>