<?xml version="1.0" encoding="utf-8"?>
<!-- Generator: Adobe Illustrator 16.0.0, SVG Export Plug-In . SVG Version: 6.00 Build 0)  -->
<!DOCTYPE svg PUBLIC "-//W3C//DTD SVG 1.1//EN" "http://www.w3.org/Graphics/SVG/1.1/DTD/svg11.dtd">
<svg version="1.1" id="图层_1" xmlns="http://www.w3.org/2000/svg" xmlns:xlink="http://www.w3.org/1999/xlink" x="0px" y="0px"
	 width="32px" height="32px" viewBox="0 0 32 32" enable-background="new 0 0 32 32" xml:space="preserve">
<g>
	<path fill="#1BAF22" d="M13.288,11.809h3.044c0.5-2.101,1.073-3.665,1.719-4.69c0.645-1.025,1.484-1.834,2.521-2.426
		C21.607,4.1,22.584,3.803,23.5,3.803c0.518,0,0.908,0.101,1.172,0.303s0.395,0.441,0.395,0.718c0,0.252-0.09,0.463-0.268,0.631
		c-0.18,0.168-0.412,0.252-0.701,0.252c-0.299,0-0.859-0.088-1.684-0.265c-0.408-0.084-0.727-0.126-0.957-0.126
		c-0.561,0-1.066,0.343-1.518,1.027c-0.449,0.685-0.811,1.612-1.084,2.78l-0.639,2.685h3.373l-0.203,0.895h-3.42l-1.992,8.044
		c-0.621,2.444-1.612,4.298-2.974,5.559c-1.363,1.26-2.842,1.891-4.438,1.891c-0.535,0-0.94-0.104-1.216-0.31
		s-0.414-0.459-0.414-0.763c0-0.259,0.095-0.468,0.287-0.623c0.19-0.155,0.464-0.232,0.821-0.232c0.178,0,0.441,0.021,0.79,0.063
		c0.594,0.075,1.163,0.113,1.707,0.113c0.84,0,1.451-0.195,1.833-0.586c0.382-0.392,0.764-1.348,1.146-2.868l2.584-10.287h-3.042
		L13.288,11.809z"/>
</g>
</svg>
