<?xml version="1.0" encoding="utf-8"?>
<!-- Generator: Adobe Illustrator 16.0.0, SVG Export Plug-In . SVG Version: 6.00 Build 0)  -->
<!DOCTYPE svg PUBLIC "-//W3C//DTD SVG 1.1//EN" "http://www.w3.org/Graphics/SVG/1.1/DTD/svg11.dtd">
<svg version="1.1" id="图层_1" xmlns="http://www.w3.org/2000/svg" xmlns:xlink="http://www.w3.org/1999/xlink" x="0px" y="0px"
	 width="512px" height="512px" viewBox="0 0 512 512" enable-background="new 0 0 512 512" xml:space="preserve">
<path fill="#aaa" d="M256,63.5c-106.327,0-192.5,75.421-192.5,168.438c0,53.163,28.198,100.499,72.188,131.366V448.5
	l84.331-51.17c11.655,1.917,23.687,3.045,35.981,3.045c106.326,0,192.5-75.421,192.5-168.438S362.326,63.5,256,63.5z M352.25,256
	c-13.272,0-24.063-10.791-24.063-24.063s10.79-24.063,24.063-24.063c13.271,0,24.063,10.791,24.063,24.063S365.522,256,352.25,256z
	 M256,256c-13.272,0-24.063-10.791-24.063-24.063s10.79-24.063,24.063-24.063c13.271,0,24.063,10.791,24.063,24.063
	S269.272,256,256,256z M159.75,256c-13.272,0-24.063-10.791-24.063-24.063s10.79-24.063,24.063-24.063
	c13.271,0,24.063,10.791,24.063,24.063S173.022,256,159.75,256z"/>
</svg>
