<?xml version="1.0" encoding="utf-8"?>
<!-- Generator: Adobe Illustrator 16.0.0, SVG Export Plug-In . SVG Version: 6.00 Build 0)  -->
<!DOCTYPE svg PUBLIC "-//W3C//DTD SVG 1.1//EN" "http://www.w3.org/Graphics/SVG/1.1/DTD/svg11.dtd">
<svg version="1.1" id="图层_1" xmlns="http://www.w3.org/2000/svg" xmlns:xlink="http://www.w3.org/1999/xlink" x="0px" y="0px"
	 width="32px" height="32px" viewBox="0 0 32 32" enable-background="new 0 0 32 32" xml:space="preserve">
<path fill="#0074FF" d="M2,15.33c0,7.732,6.268,14,14,14c7.731,0,14-6.268,14-14s-6.27-14-14-14C8.27,1.33,2,7.598,2,15.33z"/>
<path fill="none" d="M17.563,14.672c-0.023,0.061-0.016,0.145-0.016,0.219"/>
<path fill="#FFFFFF" d="M8.791,16.723l8.551-0.031v4.201l-8.555,0.006l0.002,2.648h8.553h2.694v-6.855l2.46-0.004
	c0,0,0.001-0.89,0-2.656c-0.703-0.004-2.46,0.014-2.46,0.014V7.188h-2.692L8.787,7.114l0.004,2.711l8.551,0.02v4.19l-8.555-0.014
	L8.791,16.723z"/>
<path fill="#FFFFFF" d="M21.998,16.598v1.244c0,0.219,0.119,0.412,0.313,0.508c0.079,0.041,0.164,0.059,0.248,0.061h0.02
	c0.115,0,0.229-0.037,0.33-0.107l3.164-2.319c0.143-0.102,0.229-0.264,0.232-0.438c0.007-0.178-0.064-0.345-0.201-0.457
	l-3.164-2.703c-0.175-0.145-0.406-0.176-0.611-0.084c-0.205,0.094-0.332,0.293-0.332,0.519v1.127L21.998,16.598z"/>
</svg>
