<?xml version="1.0" standalone="no"?><!DOCTYPE svg PUBLIC "-//W3C//DTD SVG 1.1//EN" "http://www.w3.org/Graphics/SVG/1.1/DTD/svg11.dtd"><svg t="1597022019531" class="icon" viewBox="0 0 1024 1024" version="1.1" xmlns="http://www.w3.org/2000/svg" p-id="3402" width="32" height="32" xmlns:xlink="http://www.w3.org/1999/xlink"><defs><style type="text/css"></style></defs><path d="M511.830951 999.560398c-268.883921 0-487.681147-218.797227-487.681147-487.729447 0-268.883921 218.797227-487.681147 487.681147-487.681147 268.93222 0 487.729447 218.797227 487.729447 487.681147 0 72.449413-16.08377 141.324654-50.61799 216.623745-73.415405 162.190085-249.081081 271.105703-437.111457 271.105702z" fill="#EFCF7B" p-id="3403" data-spm-anchor-id="a313x.7781069.0.i14" class=""></path><path d="M511.830951 48.299609c-255.601528 0-463.531343 207.929815-463.531342 463.531342s207.929815 463.579642 463.531342 463.579643c178.708551 0 345.4871-103.216263 415.135136-257.002217 33.036932-72.063016 48.444507-137.653884 48.444507-206.577426 0-255.601528-207.978114-463.531343-463.579643-463.531342m0-48.299609c282.697609 0 511.879251 229.181642 511.879251 511.830951 0 75.492288-16.373567 147.168907-52.839771 226.718363-73.367105 161.996887-251.834159 285.160889-459.03948 285.160888-282.649309 0-511.830951-229.181642-511.830951-511.879251 0-282.649309 229.181642-511.830951 511.830951-511.830951z" fill="#FFFFFF" p-id="3404"></path><path d="M233.432008 464.545635m48.299608 0l462.227254 0q48.299609 0 48.299608 48.299608l0 0q0 48.299609-48.299608 48.299609l-462.227254 0q-48.299609 0-48.299608-48.299609l0 0q0-48.299609 48.299608-48.299608Z" fill="#FFFFFF" p-id="3405" data-spm-anchor-id="a313x.7781069.0.i15" class=""></path></svg>