<?xml version="1.0" encoding="utf-8"?>
<!-- Generator: Adobe Illustrator 16.0.0, SVG Export Plug-In . SVG Version: 6.00 Build 0)  -->
<!DOCTYPE svg PUBLIC "-//W3C//DTD SVG 1.1//EN" "http://www.w3.org/Graphics/SVG/1.1/DTD/svg11.dtd">
<svg version="1.1" id="图层_1" xmlns="http://www.w3.org/2000/svg" xmlns:xlink="http://www.w3.org/1999/xlink" x="0px" y="0px"
	 width="32px" height="32px" viewBox="0 0 32 32" enable-background="new 0 0 32 32" xml:space="preserve">
<path fill="#E548ED" d="M1.978,15.969c0,7.732,6.268,14,14,14s14-6.268,14-14s-6.269-14-14-14S1.978,8.237,1.978,15.969z"/>
<path fill="#0074FF" d="M1.978,16.006c0,7.732,6.268,14,14,14s14-6.268,14-14s-6.269-14-14-14S1.978,8.274,1.978,16.006z"/>
<line fill="#FFFFFF" x1="19.201" y1="14.695" x2="19.201" y2="17.318"/>
<path fill="none" d="M17.563,14.672c-0.024,0.061-0.016,0.145-0.016,0.219"/>
<path fill="#FFFFFF" d="M20.507,19.025c0.079,0.041,0.164,0.059,0.248,0.061h0.019c0.115-0.002,0.23-0.037,0.33-0.109l3.165-2.318
	c0.142-0.102,0.228-0.261,0.232-0.435c0.007-0.179-0.064-0.346-0.201-0.457l-3.165-2.704c-0.174-0.145-0.406-0.176-0.611-0.084
	c-0.205,0.094-0.332,0.293-0.332,0.519v1.117l-8.552,0.032v-4.201l8.556-0.007v1.244c0,0.219,0.119,0.413,0.312,0.508
	c0.079,0.041,0.164,0.06,0.248,0.062h0.019c0.115-0.001,0.23-0.038,0.33-0.109l3.165-2.318c0.142-0.102,0.228-0.263,0.232-0.437
	c0.007-0.178-0.064-0.345-0.201-0.457l-3.165-2.703c-0.174-0.145-0.406-0.176-0.611-0.084c-0.205,0.094-0.332,0.293-0.332,0.519
	v1.127H11.64H8.947v6.855c0,0,0.017,0.019-1.187,0.027c-1.828,0.013-1.922,2.612-0.078,2.622c0.703,0.004,1.265-0.002,1.265-0.002
	v6.857h2.692l8.556,0.074v1.24c0,0.219,0.119,0.414,0.312,0.508c0.079,0.041,0.164,0.061,0.248,0.063h0.019
	c0.115-0.002,0.23-0.037,0.33-0.109l3.165-2.318c0.142-0.102,0.228-0.262,0.232-0.436c0.007-0.18-0.064-0.346-0.201-0.457
	l-3.165-2.703c-0.174-0.146-0.406-0.178-0.611-0.086c-0.205,0.094-0.332,0.295-0.332,0.52v1.068l-8.552-0.02v-4.189l8.556,0.014
	v1.199C20.195,18.734,20.314,18.93,20.507,19.025z"/>
</svg>
