<?xml version="1.0" encoding="utf-8"?>
<!-- Generator: Adobe Illustrator 16.0.0, SVG Export Plug-In . SVG Version: 6.00 Build 0)  -->
<!DOCTYPE svg PUBLIC "-//W3C//DTD SVG 1.1//EN" "http://www.w3.org/Graphics/SVG/1.1/DTD/svg11.dtd">
<svg version="1.1" id="图层_1" xmlns="http://www.w3.org/2000/svg" xmlns:xlink="http://www.w3.org/1999/xlink" x="0px" y="0px"
	 width="32px" height="32px" viewBox="0 0 32 32" enable-background="new 0 0 32 32" xml:space="preserve">
<path fill="#A85EEF" d="M12.106,16.634c0-3.037,1.569-5.714,3.957-7.308c-1.443-0.971-3.186-1.54-5.063-1.54
	c-4.971,0-9,3.977-9,8.882c0,4.904,4.029,8.881,9,8.881c1.899,0,3.658-0.584,5.11-1.574C13.695,22.385,12.106,19.69,12.106,16.634z"
	/>
<path fill="#A85EEF" d="M20.114,16.701c0,3.036-1.568,5.714-3.957,7.308c1.442,0.971,3.186,1.54,5.063,1.54c4.971,0,9-3.977,9-8.882
	c0-4.904-4.029-8.881-9-8.881c-1.898,0-3.658,0.584-5.11,1.574C18.525,10.95,20.114,13.645,20.114,16.701z"/>
</svg>
