<?xml version="1.0" encoding="utf-8"?>
<!-- Generator: Adobe Illustrator 23.0.0, SVG Export Plug-In . SVG Version: 6.00 Build 0)  -->
<svg version="1.1" id="图层_1" xmlns="http://www.w3.org/2000/svg" xmlns:xlink="http://www.w3.org/1999/xlink" x="0px" y="0px"
	 viewBox="0 0 50 50" style="enable-background:new 0 0 50 50;" xml:space="preserve">
<style type="text/css">
	.st0{fill:#5E75E6;}
</style>
<path class="st0" d="M30.4,17.2c0.8,0,1.6-0.3,2.1-0.8c1.3-1.6,2.3-1.8,3.1-1.8h3.9v1.3c0,1,0.5,2.1,1.6,2.3c0.3,0.3,0.8,0.3,1,0.3
	c0.8,0,1.3-0.3,1.8-0.8l3.9-3.9c0.3-0.3,0.5-0.5,0.5-0.8c0.3-0.5,0.3-1.3,0-2.1c-0.3-0.3-0.3-0.5-0.5-0.8l-3.9-3.9
	c-0.8-0.8-1.8-1-2.9-0.5c-1,0.5-1.6,1.3-1.6,2.3v1.3h-4.2c-2.6,0-4.9,1.3-7,3.4c-1,1-0.8,2.6,0.3,3.6C29.1,17,29.6,17.2,30.4,17.2z
	 M17.7,33.6c-1.3,1.6-2.3,1.8-3.1,1.8H4.2c-1.6,0-2.6,1-2.6,2.6c0,1.6,1,2.6,2.6,2.6h10.4c2.6,0,4.9-1.3,7-3.4c1-1,0.8-2.6-0.3-3.6
	C20.3,32.5,18.7,32.5,17.7,33.6z M48.1,36.9c-0.3-0.3-0.3-0.5-0.5-0.8l-3.9-3.9c-0.8-0.8-1.8-1-2.9-0.5c-1,0.5-1.6,1.3-1.6,2.3v1.3
	h-3.9c-3.4,0-5.7-5.7-8-11.4c-2.6-6.7-5.7-14.5-12.7-14.5H4.2c-1.6,0-2.6,1-2.6,2.6s1,2.6,2.6,2.6h10.4c3.4,0,5.7,5.7,8,11.4
	c2.6,6.7,5.7,14.5,12.7,14.5h3.9v1.3c0,1,0.5,2.1,1.6,2.3c0.3,0.3,0.8,0.3,1,0.3c0.8,0,1.3-0.3,1.8-0.8l3.9-3.9
	c0.3-0.3,0.5-0.5,0.5-0.8C48.3,38.2,48.3,37.7,48.1,36.9z"/>
</svg>
