<?xml version="1.0" encoding="utf-8"?>
<!-- Generator: Adobe Illustrator 16.0.0, SVG Export Plug-In . SVG Version: 6.00 Build 0)  -->
<!DOCTYPE svg PUBLIC "-//W3C//DTD SVG 1.1//EN" "http://www.w3.org/Graphics/SVG/1.1/DTD/svg11.dtd">
<svg version="1.1" id="图层_1" xmlns="http://www.w3.org/2000/svg" xmlns:xlink="http://www.w3.org/1999/xlink" x="0px" y="0px"
	 width="32px" height="32px" viewBox="0 0 32 32" enable-background="new 0 0 32 32" xml:space="preserve">
<path fill="#1296DB" d="M2,16c0,7.732,6.268,14,14,14c7.731,0,14-6.268,14-14c0-7.731-6.269-14-14-14C8.268,2,2,8.269,2,16z"/>
<path fill="#FFFFFF" d="M13.427,17.768c-0.105-0.096-0.183-0.211-0.226-0.337c-0.057-0.144-0.099-0.349-0.155-0.613l-1.131-5.795
	c-0.043-0.192-0.071-0.409-0.113-0.637c-0.042-0.241-0.071-0.505-0.085-0.782l-0.679,0.072c-0.099,0.144-0.212,0.289-0.325,0.42
	c-0.128,0.133-0.241,0.289-0.368,0.469l-4.128,6.012c-0.212,0.301-0.396,0.541-0.551,0.721c-0.156,0.182-0.297,0.325-0.453,0.421
	c-0.155,0.109-0.311,0.181-0.495,0.217c-0.184,0.036-0.41,0.072-0.679,0.085l-0.057,0.3c0.254,0,0.523,0,0.806-0.012
	c0.283,0,0.538-0.012,0.806-0.012c0.311,0,0.622,0,0.947,0.012S7.15,18.32,7.404,18.32l0.099-0.324
	c-0.438-0.012-0.735-0.061-0.891-0.121c-0.156-0.06-0.227-0.168-0.184-0.324c0.014-0.084,0.127-0.3,0.339-0.637l1.16-1.744h3.478
	l0.354,1.888c0.014,0.107,0.028,0.204,0.042,0.288s0.014,0.156,0,0.229c-0.028,0.156-0.142,0.264-0.311,0.313
	c-0.184,0.061-0.466,0.097-0.862,0.12L10.6,18.309c0.297,0,0.594,0,0.891-0.012c0.297,0,0.594-0.013,0.891-0.013
	c0.354,0,0.707,0,1.061,0.013c0.353,0.012,0.664,0.012,0.961,0.012l0.099-0.324c-0.219-0.007-0.437-0.031-0.65-0.072
	C13.694,17.906,13.545,17.855,13.427,17.768z M8.267,14.665l2.361-3.51h0.028l0.636,3.51H8.267z M20.595,14.016
	c0.1-0.108,0.197-0.192,0.311-0.252s0.227-0.108,0.354-0.132c0.127-0.024,0.297-0.06,0.522-0.084l0.043-0.289
	c-0.171,0-0.354,0-0.538,0.012c-0.184,0-0.396,0.012-0.649,0.012c-0.326,0-0.58,0-0.792-0.012c-0.213,0-0.424-0.012-0.637-0.012
	l-0.084,0.3c0.311,0.012,0.523,0.048,0.636,0.096c0.113,0.048,0.155,0.132,0.142,0.217c-0.015,0.048-0.028,0.096-0.07,0.168
	c-0.043,0.072-0.086,0.132-0.128,0.205l-1.993,2.85l-0.75-2.826c-0.037-0.067-0.056-0.142-0.056-0.216
	c-0.015-0.056-0.015-0.113,0-0.168c0.014-0.096,0.084-0.168,0.211-0.216c0.113-0.036,0.326-0.072,0.608-0.108l0.043-0.289
	c-0.198,0-0.41,0-0.651,0.012c-0.226,0-0.48,0.012-0.749,0.012c-0.311,0-0.608,0-0.891-0.012c-0.283,0-0.538-0.012-0.764-0.012
	l-0.099,0.325c0.198,0.012,0.368,0.023,0.48,0.048c0.127,0.024,0.226,0.06,0.311,0.12s0.141,0.144,0.198,0.252
	c0.057,0.108,0.099,0.252,0.156,0.421c0.198,0.661,0.382,1.322,0.58,1.984c0.184,0.661,0.353,1.347,0.509,2.068l0.48-0.037
	c0.282-0.421,0.579-0.841,0.849-1.237c0.282-0.397,0.537-0.77,0.791-1.107c0.255-0.349,0.48-0.661,0.693-0.938
	c0.212-0.289,0.409-0.529,0.579-0.733C20.368,14.269,20.495,14.124,20.595,14.016z M28.018,13.463l-0.058-0.072l-1.611,0.097
	c-0.028,0-0.085,0-0.169,0.012c-0.085,0-0.171-0.012-0.227-0.024c-0.057-0.012-0.128-0.047-0.198-0.084
	c-0.367-0.204-0.819-0.3-1.371-0.3c-0.354,0-0.692,0.048-1.018,0.156c-0.339,0.108-0.636,0.252-0.92,0.445
	c-0.281,0.192-0.522,0.409-0.706,0.673c-0.198,0.252-0.325,0.529-0.382,0.83c-0.169,0.794,0.099,1.359,0.807,1.695
	c-0.101,0.06-0.227,0.145-0.368,0.229c-0.143,0.084-0.283,0.18-0.41,0.289c-0.127,0.107-0.255,0.216-0.354,0.324
	c-0.099,0.107-0.17,0.217-0.184,0.324c-0.043,0.229,0.014,0.409,0.197,0.553c0.17,0.146,0.396,0.266,0.665,0.361
	c-0.198,0.108-0.41,0.216-0.608,0.337c-0.212,0.12-0.396,0.252-0.565,0.384c-0.17,0.146-0.324,0.302-0.452,0.47
	c-0.127,0.168-0.212,0.349-0.254,0.553c-0.057,0.289-0.028,0.529,0.084,0.746c0.113,0.204,0.298,0.385,0.523,0.528
	c0.227,0.145,0.495,0.241,0.791,0.313c0.298,0.072,0.607,0.097,0.905,0.097c0.58,0,1.117-0.072,1.641-0.204
	c0.522-0.133,0.961-0.325,1.37-0.565c0.397-0.24,0.722-0.529,0.99-0.854c0.27-0.325,0.438-0.674,0.509-1.047
	c0.07-0.312,0.042-0.564-0.056-0.757c-0.086-0.195-0.244-0.359-0.453-0.469c-0.198-0.12-0.438-0.192-0.706-0.241
	c-0.27-0.047-0.538-0.071-0.82-0.071c-0.256,0-0.537,0-0.834,0.012c-0.297,0.013-0.581,0.013-0.85,0.013
	c-0.099,0-0.211-0.013-0.324-0.024c-0.112-0.016-0.222-0.044-0.325-0.084c-0.1-0.037-0.184-0.097-0.24-0.156
	c-0.057-0.061-0.086-0.133-0.071-0.217c0.028-0.108,0.099-0.229,0.24-0.36c0.127-0.133,0.283-0.229,0.467-0.289
	c0.297,0.06,0.58,0.084,0.849,0.084c0.311,0,0.622-0.048,0.961-0.132c0.34-0.097,0.65-0.229,0.948-0.409
	c0.297-0.18,0.551-0.409,0.777-0.673c0.211-0.264,0.367-0.577,0.438-0.926c0.085-0.373,0.015-0.721-0.212-1.034h1.471L28.018,13.463
	z M22.079,19.198c0.086-0.036,0.17-0.06,0.283-0.084c0.099-0.012,0.226-0.024,0.381-0.036h0.778c0.325,0,0.594,0.012,0.833,0.024
	c0.241,0.012,0.453,0.06,0.637,0.132c0.227,0.084,0.368,0.204,0.467,0.373c0.099,0.168,0.113,0.372,0.057,0.624
	c-0.057,0.277-0.169,0.506-0.325,0.698s-0.354,0.36-0.594,0.481c-0.241,0.12-0.495,0.216-0.792,0.276
	c-0.548,0.107-1.118,0.111-1.668,0.012c-0.255-0.048-0.481-0.12-0.679-0.229c-0.188-0.102-0.344-0.242-0.452-0.409
	c-0.103-0.191-0.132-0.406-0.085-0.613c0.043-0.204,0.142-0.408,0.282-0.601c0.142-0.192,0.34-0.36,0.595-0.518
	C21.909,19.282,21.994,19.234,22.079,19.198z M25.289,15.291c-0.043,0.168-0.1,0.337-0.185,0.517
	c-0.085,0.181-0.198,0.337-0.325,0.481c-0.128,0.145-0.282,0.252-0.466,0.348c-0.185,0.085-0.383,0.133-0.608,0.133
	c-0.269,0-0.48-0.06-0.637-0.169c-0.163-0.113-0.286-0.263-0.353-0.432c-0.086-0.18-0.128-0.373-0.128-0.589
	c-0.014-0.216,0-0.42,0.042-0.625c0.043-0.181,0.1-0.349,0.184-0.529c0.086-0.181,0.185-0.337,0.312-0.469
	c0.256-0.287,0.651-0.459,1.075-0.469c0.268,0,0.494,0.048,0.649,0.156c0.156,0.108,0.283,0.24,0.368,0.421
	c0.085,0.168,0.128,0.361,0.128,0.577C25.346,14.858,25.33,15.074,25.289,15.291z"/>
</svg>
