<?xml version="1.0" encoding="utf-8"?>
<!-- Generator: Adobe Illustrator 16.0.0, SVG Export Plug-In . SVG Version: 6.00 Build 0)  -->
<!DOCTYPE svg PUBLIC "-//W3C//DTD SVG 1.1//EN" "http://www.w3.org/Graphics/SVG/1.1/DTD/svg11.dtd">
<svg version="1.1" id="图层_1" xmlns="http://www.w3.org/2000/svg" xmlns:xlink="http://www.w3.org/1999/xlink" x="0px" y="0px"
	 width="32px" height="32px" viewBox="0 0 32 32" enable-background="new 0 0 32 32" xml:space="preserve">
<path fill="#E548ED" d="M1.978,15.969c0,7.732,6.268,14,14,14s14-6.268,14-14s-6.269-14-14-14S1.978,8.237,1.978,15.969z"/>
<path fill="#0074FF" d="M1.978,16.006c0,7.732,6.268,14,14,14s14-6.268,14-14s-6.269-14-14-14S1.978,8.274,1.978,16.006z"/>
<path fill="#FFFFFF" d="M21.235,7.545c-0.234,0.107-0.379,0.335-0.379,0.593V9.7h-4.331c-2.343,0-4.297,2.148-4.767,4.998H5.399
	c-0.722,0-1.31,0.587-1.31,1.31c0,0.722,0.587,1.31,1.31,1.31h6.362c0.469,2.852,2.428,4.998,4.767,4.998h4.329v1.562
	c0,0.25,0.137,0.473,0.357,0.582c0.09,0.048,0.188,0.069,0.284,0.071h0.021c0.133-0.002,0.265-0.044,0.378-0.125l3.624-2.654
	c0.163-0.116,0.261-0.301,0.267-0.5c0.008-0.204-0.074-0.395-0.23-0.523l-3.624-3.095c-0.199-0.166-0.465-0.202-0.7-0.097
	c-0.234,0.107-0.38,0.336-0.38,0.594v1.563h-4.327c-1.065,0-2.253-1.514-2.253-3.685c0-2.172,1.188-3.688,2.253-3.688h4.327v1.563
	c0,0.247,0.138,0.472,0.359,0.582c0.094,0.05,0.196,0.072,0.298,0.072c0.137,0,0.271-0.043,0.387-0.126l3.624-2.653
	c0.163-0.118,0.261-0.302,0.267-0.502c0.008-0.203-0.074-0.394-0.23-0.522l-3.624-3.095c-0.121-0.102-0.267-0.156-0.416-0.156
	h-0.019C21.408,7.484,21.32,7.504,21.235,7.545z"/>
</svg>
