<?xml version="1.0" encoding="utf-8"?>
<!-- Generator: Adobe Illustrator 23.0.0, SVG Export Plug-In . SVG Version: 6.00 Build 0)  -->
<svg version="1.1" id="图层_1" xmlns="http://www.w3.org/2000/svg" xmlns:xlink="http://www.w3.org/1999/xlink" x="0px" y="0px"
	 viewBox="0 0 32 32" style="enable-background:new 0 0 32 32;" xml:space="preserve">
<style type="text/css">
	.st0{fill:#33DB77;}
	.st1{fill:#EEEEEE;}
	.st2{fill:#00ACC1;}
</style>
<path class="st0" d="M2.7,16c0,7.4,6,13.3,13.3,13.3c7.4,0,13.3-6,13.3-13.3c0,0,0,0,0,0c0-7.4-6-13.3-13.3-13.3S2.7,8.6,2.7,16
	C2.7,16,2.7,16,2.7,16z"/>
<path class="st1" d="M5.3,16c0,5.9,4.8,10.7,10.7,10.7S26.7,21.9,26.7,16c0-5.9-4.8-10.7-10.7-10.7C10.1,5.3,5.3,10.1,5.3,16
	C5.3,16,5.3,16,5.3,16z"/>
<path d="M15.3,7.3h1.3V16h-1.3V7.3z"/>
<path d="M20.9,19.8l-1.1,1.1l-4.3-4.3l1.1-1.1L20.9,19.8z"/>
<path d="M14.7,16c0,0.7,0.6,1.3,1.3,1.3s1.3-0.6,1.3-1.3s-0.6-1.3-1.3-1.3S14.7,15.3,14.7,16z"/>
<path class="st2" d="M15.3,16c0,0.4,0.3,0.7,0.7,0.7c0.4,0,0.7-0.3,0.7-0.7c0,0,0,0,0,0c0-0.4-0.3-0.7-0.7-0.7
	C15.6,15.3,15.3,15.6,15.3,16C15.3,16,15.3,16,15.3,16z"/>
</svg>
