<?xml version="1.0" encoding="utf-8"?>
<!-- Generator: Adobe Illustrator 23.0.0, SVG Export Plug-In . SVG Version: 6.00 Build 0)  -->
<svg version="1.1" id="图层_1" xmlns="http://www.w3.org/2000/svg" xmlns:xlink="http://www.w3.org/1999/xlink" x="0px" y="0px"
	 viewBox="0 0 32 32" style="enable-background:new 0 0 32 32;" xml:space="preserve">
<style type="text/css">
	.st0{fill:#9EE444;}
	.st1{fill:#FFFFFF;}
</style>
<path class="st0" d="M0,16c0,8.8,7.2,16,16,16s16-7.2,16-16S24.8,0,16,0S0,7.2,0,16z"/>
<path class="st1" d="M18.8,19.7H6.3c-0.8,0-1.4-0.6-1.4-1.4S5.6,17,6.3,17h19.4c0.8,0,1.4,0.6,1.4,1.4c0,0.5-0.3,1-0.8,1.3l-5.2,4.7
	c-0.6,0.5-1.4,0.5-2-0.1c-0.2-0.3-0.4-0.6-0.4-0.9V19.7z M18.8,12.3V8.7c0-0.8,0.6-1.4,1.4-1.4c0.3,0,0.7,0.1,0.9,0.4l5.2,4.7
	c0.7,0.3,1,1.1,0.7,1.8c-0.2,0.5-0.7,0.8-1.3,0.8H6.3c-0.8,0-1.4-0.6-1.4-1.4c0-0.8,0.6-1.4,1.4-1.4H18.8z"/>
</svg>
