<?xml version="1.0" standalone="no"?><!DOCTYPE svg PUBLIC "-//W3C//DTD SVG 1.1//EN" "http://www.w3.org/Graphics/SVG/1.1/DTD/svg11.dtd"><svg t="1597024819099" class="icon" viewBox="0 0 1024 1024" version="1.1" xmlns="http://www.w3.org/2000/svg" p-id="16643" xmlns:xlink="http://www.w3.org/1999/xlink" width="32" height="32"><defs><style type="text/css"></style></defs><path d="M512.6 956.5c-245.7 0-444.9-199.2-444.9-444.9S266.9 66.7 512.6 66.7s444.9 199.2 444.9 444.9-199.2 444.9-444.9 444.9z" p-id="16644" data-spm-anchor-id="a313x.7781069.0.i63" class="selected" fill="#36ab60"></path><path d="M768.47 555.782h-513.5v-87.7h513.5z" fill="#FFFFFF" p-id="16645"></path><path d="M512.9 703.7m-63.8 0a63.8 63.8 0 1 0 127.6 0 63.8 63.8 0 1 0-127.6 0Z" fill="#FFFFFF" p-id="16646"></path><path d="M512.9 319.9m-63.8 0a63.8 63.8 0 1 0 127.6 0 63.8 63.8 0 1 0-127.6 0Z" fill="#FFFFFF" p-id="16647"></path></svg>