<?xml version="1.0" standalone="no"?><!DOCTYPE svg PUBLIC "-//W3C//DTD SVG 1.1//EN" "http://www.w3.org/Graphics/SVG/1.1/DTD/svg11.dtd"><svg t="1596895352953" class="icon" viewBox="0 0 1024 1024" version="1.1" xmlns="http://www.w3.org/2000/svg" p-id="5085" xmlns:xlink="http://www.w3.org/1999/xlink" width="32" height="32"><defs><style type="text/css"></style></defs><path d="M512 512m-512 0a512 512 0 1 0 1024 0 512 512 0 1 0-1024 0Z" fill="#F47A45" p-id="5086"></path><path d="M656.72 598.75c3.46-0.1 6.92 0.59 10.23 2.77-12.01-7.71-19.91-21.15-19.91-36.52v-85.74c0-62.81-45.41-115.24-106.1-128.14v-3.06c0-16.01-12.95-28.91-28.91-28.91s-28.91 12.95-28.91 28.91v3.06c-60.68 12.9-106.1 65.28-106.1 128.14V565c0 15.37-7.96 28.81-19.91 36.52 3.36-2.17 6.77-2.92 10.23-2.77-10.62 0.05-19.22 8.6-19.22 19.27s8.6 19.27 19.27 19.27h289.24c10.67 0 19.27-8.6 19.27-19.27 0.04-10.57-8.56-19.22-19.18-19.27z m-144.65 106.1c26.64 0 48.23-21.6 48.23-48.23h-96.46c0 26.63 21.55 48.23 48.23 48.23z" fill="#FFFFFF" p-id="5087"></path></svg>