<?xml version="1.0" encoding="utf-8"?>
<!-- Generator: Adobe Illustrator 16.0.0, SVG Export Plug-In . SVG Version: 6.00 Build 0)  -->
<!DOCTYPE svg PUBLIC "-//W3C//DTD SVG 1.1//EN" "http://www.w3.org/Graphics/SVG/1.1/DTD/svg11.dtd">
<svg version="1.1" id="图层_1" xmlns="http://www.w3.org/2000/svg" xmlns:xlink="http://www.w3.org/1999/xlink" x="0px" y="0px"
	 width="32px" height="32px" viewBox="0 0 32 32" enable-background="new 0 0 32 32" xml:space="preserve">
<path fill="#1EA6E2" d="M2,16c0,7.732,6.268,14,14,14c7.73,0,14-6.268,14-14c0-7.731-6.27-14-14-14C8.268,2,2,8.269,2,16z"/>
<g>
	<path fill="#FFFFFF" d="M11.787,11.912v0.49c-0.526,0.073-0.79,0.27-0.79,0.59c0,0.313,0.197,0.729,0.59,1.25l1.359,1.829
		l1.29-1.739c0.227-0.3,0.396-0.555,0.506-0.764c0.109-0.21,0.164-0.399,0.164-0.565c0-0.153-0.057-0.28-0.17-0.38
		c-0.113-0.1-0.29-0.173-0.529-0.22v-0.49h3.349v0.49c-0.247,0.067-0.501,0.213-0.76,0.44c-0.26,0.227-0.656,0.68-1.189,1.359
		l-2.069,2.649l2.89,3.879c0.191,0.261,0.361,0.467,0.504,0.619c0.144,0.153,0.277,0.271,0.4,0.35
		c0.122,0.081,0.252,0.145,0.383,0.19v0.49h-4.077v-0.49c0.553-0.066,0.829-0.274,0.829-0.62c0-0.112-0.029-0.247-0.09-0.403
		c-0.06-0.157-0.18-0.362-0.359-0.616l-1.6-2.199l-1.72,2.319c-0.267,0.36-0.399,0.654-0.399,0.88c0,0.166,0.062,0.309,0.185,0.425
		c0.123,0.117,0.318,0.188,0.585,0.215v0.49H7.649v-0.49c0.213-0.073,0.412-0.172,0.595-0.294c0.183-0.124,0.38-0.3,0.589-0.525
		c0.21-0.227,0.509-0.593,0.895-1.1l2.099-2.719l-2.639-3.569c-0.16-0.213-0.309-0.403-0.444-0.57
		c-0.137-0.167-0.26-0.298-0.371-0.396c-0.11-0.096-0.209-0.167-0.3-0.214s-0.178-0.08-0.265-0.1v-0.49H11.787z"/>
	<path fill="#FFFFFF" d="M25.743,14.092h-2.881v-0.45c0.248-0.06,0.415-0.12,0.502-0.18c0.087-0.061,0.151-0.152,0.193-0.275
		c0.045-0.123,0.067-0.332,0.067-0.625v-2.239c0-0.333-0.022-0.618-0.067-0.854c-0.042-0.237-0.118-0.418-0.229-0.545
		c-0.109-0.127-0.229-0.215-0.358-0.265c-0.132-0.05-0.292-0.075-0.485-0.075c-0.161,0-0.314,0.027-0.459,0.08
		c-0.147,0.054-0.304,0.138-0.466,0.255c-0.163,0.116-0.297,0.231-0.395,0.345c-0.101,0.114-0.172,0.218-0.209,0.315
		c-0.043,0.096-0.061,0.201-0.061,0.314v2.639c0,0.327,0.018,0.548,0.061,0.665c0.037,0.116,0.104,0.205,0.193,0.265
		c0.092,0.06,0.266,0.12,0.523,0.18v0.45h-2.858v-0.45c0.247-0.06,0.412-0.12,0.495-0.18c0.084-0.061,0.146-0.153,0.189-0.28
		c0.044-0.126,0.066-0.336,0.066-0.629v-3.04c0-0.326-0.011-0.555-0.031-0.685c-0.02-0.13-0.073-0.238-0.16-0.325
		c-0.085-0.086-0.306-0.16-0.659-0.22v-0.47l1.699-0.07h0.49l-0.08,1.04l0.061,0.03c0.398-0.413,0.771-0.705,1.109-0.875
		c0.338-0.17,0.684-0.255,1.029-0.255c0.435,0,0.797,0.082,1.089,0.245c0.294,0.163,0.509,0.393,0.64,0.689
		c0.134,0.296,0.2,0.712,0.2,1.245v2.669c0,0.306,0.014,0.517,0.04,0.63c0.027,0.113,0.085,0.205,0.172,0.274
		c0.085,0.07,0.278,0.138,0.579,0.205V14.092z"/>
</g>
</svg>
