<?xml version="1.0" encoding="utf-8"?>
<!-- Generator: Adobe Illustrator 16.0.0, SVG Export Plug-In . SVG Version: 6.00 Build 0)  -->
<!DOCTYPE svg PUBLIC "-//W3C//DTD SVG 1.1//EN" "http://www.w3.org/Graphics/SVG/1.1/DTD/svg11.dtd">
<svg version="1.1" id="图层_1" xmlns="http://www.w3.org/2000/svg" xmlns:xlink="http://www.w3.org/1999/xlink" x="0px" y="0px"
	 width="32px" height="32px" viewBox="0 0 32 32" enable-background="new 0 0 32 32" xml:space="preserve">
<path fill="#1EA6E2" d="M2,16c0,7.732,6.268,14,14,14c7.73,0,14-6.268,14-14c0-7.731-6.27-14-14-14C8.268,2,2,8.269,2,16z"/>
<path fill="#FFFFFF" d="M19.121,24.332H15.38l-2.412-4.561c-0.092-0.169-0.186-0.481-0.283-0.938h-0.039
	c-0.046,0.215-0.153,0.541-0.322,0.977l-2.422,4.521h-3.76l4.463-7.002l-4.082-7.001h3.838l2.002,4.199
	c0.156,0.332,0.296,0.726,0.42,1.182h0.039c0.078-0.273,0.225-0.68,0.439-1.221l2.227-4.16h3.516l-4.2,6.943L19.121,24.332z"/>
<path fill="#FFFFFF" d="M26.414,14.749h-1.75L21.49,9.91c-0.188-0.282-0.316-0.496-0.387-0.64h-0.021
	c0.027,0.272,0.043,0.688,0.043,1.246v4.232h-1.639V7.047h1.869l3.057,4.688c0.139,0.212,0.268,0.421,0.387,0.628h0.021
	c-0.029-0.179-0.043-0.531-0.043-1.058V7.047h1.637V14.749z"/>
</svg>
