<?xml version="1.0" encoding="utf-8"?>
<!-- Generator: Adobe Illustrator 16.0.0, SVG Export Plug-In . SVG Version: 6.00 Build 0)  -->
<!DOCTYPE svg PUBLIC "-//W3C//DTD SVG 1.1//EN" "http://www.w3.org/Graphics/SVG/1.1/DTD/svg11.dtd">
<svg version="1.1" id="图层_1" xmlns="http://www.w3.org/2000/svg" xmlns:xlink="http://www.w3.org/1999/xlink" x="0px" y="0px"
	 width="32px" height="32px" viewBox="0 0 32 32" enable-background="new 0 0 32 32" xml:space="preserve">
<path fill="#E548ED" d="M2,16c0,7.732,6.268,14,14,14c7.731,0,14-6.268,14-14c0-7.732-6.27-14-14-14C8.269,2,2,8.268,2,16z"/>
<path fill="none" d="M17.563,14.672c-0.023,0.061-0.016,0.145-0.016,0.219"/>
<path fill="#FFFFFF" d="M13.719,15.834l-0.182-0.183c-0.085-0.086-0.224-0.086-0.311-0.001c-0.042,0.041-0.065,0.097-0.065,0.156
	v2.623c0,0.123,0.098,0.22,0.221,0.22h2.623c0.121,0,0.218-0.1,0.218-0.221c0-0.058-0.023-0.113-0.063-0.153
	c-0.085-0.085-0.085-0.225,0-0.312l0,0l2.792-2.798c0.087-0.085,0.087-0.225,0-0.31l0,0l-0.255-0.254
	c-0.086-0.084-0.088-0.223-0.002-0.31c0.041-0.042,0.098-0.066,0.157-0.065h2.623c0.122,0,0.221,0.099,0.221,0.22v2.624
	c-0.001,0.123-0.102,0.222-0.224,0.221c-0.058,0-0.113-0.025-0.154-0.065l-0.175-0.177c-0.082-0.084-0.219-0.088-0.304-0.007
	c-0.003,0.002-0.005,0.004-0.008,0.007l-4.705,4.703c-0.087,0.084-0.225,0.084-0.311,0l-5.754-5.757
	c-0.086-0.087-0.086-0.226,0-0.311c0,0,0,0,0,0l7.967-7.97c0.085-0.086,0.085-0.224,0-0.311L16.154,5.53
	c-0.086-0.085-0.224-0.085-0.311,0L5.53,15.845c-0.085,0.085-0.085,0.226,0,0.31l10.314,10.316c0.086,0.085,0.225,0.085,0.311,0
	L26.47,16.154c0.086-0.084,0.086-0.224,0-0.31L20.4,9.778c-0.086-0.084-0.224-0.084-0.31,0l-6.06,6.057
	c-0.085,0.086-0.225,0.086-0.31,0c0,0,0,0-0.001,0V15.834z"/>
</svg>
