<?xml version="1.0" encoding="utf-8"?>
<!-- Generator: Adobe Illustrator 16.0.0, SVG Export Plug-In . SVG Version: 6.00 Build 0)  -->
<!DOCTYPE svg PUBLIC "-//W3C//DTD SVG 1.1//EN" "http://www.w3.org/Graphics/SVG/1.1/DTD/svg11.dtd">
<svg version="1.1" id="图层_1" xmlns="http://www.w3.org/2000/svg" xmlns:xlink="http://www.w3.org/1999/xlink" x="0px" y="0px"
	 width="256px" height="256px" viewBox="0 0 256 256" enable-background="new 0 0 256 256" xml:space="preserve">
<path fill="#17A3C6" d="M253,213c0,22.092-17.908,40-40,40H43c-22.091,0-40-17.908-40-40V43C3,20.909,20.909,3,43,3h170
	c22.092,0,40,17.909,40,40V213z"/>
<g>
	<path fill="#FFFFFF" d="M195.81,182.908v25.905c0,3.047,1.525,3.81,3.811,2.285l17.523-12.19c0.762-0.763,1.523-1.523,1.523-2.286
		c0-0.762-0.762-1.523-1.523-2.285l-17.523-12.191C197.335,180.622,195.81,181.385,195.81,182.908z"/>
	<path fill="#FFFFFF" d="M168.833,173.731h-76.19c-8.381,0-15.238,6.856-15.238,15.237v15.238c0,8.382,6.857,15.238,15.238,15.238
		h76.19c8.381,0,15.238-6.856,15.238-15.238v-15.238C184.071,180.588,177.214,173.731,168.833,173.731z"/>
	<path fill="#17A3C6" d="M153.595,204.207c-4.57,0-7.619-3.048-7.619-7.619s3.049-7.619,7.619-7.619
		c4.572,0,7.619,3.048,7.619,7.619S158.167,204.207,153.595,204.207L153.595,204.207z"/>
	<g>
		<path fill="#FFFFFF" d="M58.357,44.935l17.524,12.19c0.761,0.762,1.524,1.524,1.524,2.286s-0.763,1.524-1.524,2.286l-17.524,12.19
			c-2.286,1.524-3.809,0.762-3.809-2.286V45.697C54.548,44.172,56.071,43.411,58.357,44.935L58.357,44.935z"/>
		<path fill="#FFFFFF" d="M77.405,51.792V67.03c0,8.381,6.857,15.238,15.237,15.238h76.19c8.381,0,15.238-6.857,15.238-15.238
			V51.792c0-8.381-6.857-15.238-15.238-15.238h-76.19C84.262,36.554,77.405,43.411,77.405,51.792z"/>
		<path fill="#17A3C6" d="M100.262,59.411c0-4.571,3.047-7.619,7.619-7.619c4.572,0,7.619,3.047,7.619,7.619
			c0,4.572-3.047,7.619-7.619,7.619C103.31,67.03,100.262,63.982,100.262,59.411z"/>
	</g>
	<path fill="#FFFFFF" d="M168.833,103.329h-76.19c-8.381,0-15.238,6.856-15.238,15.237v15.238c0,8.383,6.857,15.238,15.238,15.238
		h76.19c8.381,0,15.238-6.855,15.238-15.238v-15.238C184.071,110.185,177.214,103.329,168.833,103.329z"/>
</g>
<g>
	<g>
		<path fill="#17A3C6" d="M11.667,105.835c3.224,0,3.224-5,0-5S8.442,105.835,11.667,105.835L11.667,105.835z"/>
	</g>
</g>
<g>
	<g>
		<path fill="#17A3C6" d="M10.333,111.502c3.224,0,3.224-5,0-5S7.109,111.502,10.333,111.502L10.333,111.502z"/>
	</g>
</g>
<g>
	<g>
		<path fill="#17A3C6" d="M221.833,105.002c-0.001,1.514-0.044,2.901-0.577,4.335c-0.475,1.278,0.52,2.738,1.746,3.075
			c1.401,0.385,2.602-0.47,3.076-1.746c0.674-1.813,0.754-3.75,0.755-5.665C226.835,101.778,221.835,101.778,221.833,105.002
			L221.833,105.002z"/>
	</g>
</g>
<g>
	<g>
		<path fill="#17A3C6" d="M220.899,110.568c-1.569,1.618-2.624,3.573-4,5.333c-0.839,1.072-1.051,2.485,0,3.535
			c0.875,0.875,2.694,1.076,3.535,0c1.368-1.75,2.45-3.734,4-5.333C226.68,111.789,223.147,108.25,220.899,110.568L220.899,110.568z
			"/>
	</g>
</g>
<g>
	<g>
		<path fill="#17A3C6" d="M210.232,121.901c-0.111,0.111-0.223,0.222-0.333,0.333c-0.963,0.964-0.964,2.572,0,3.535
			c0.963,0.963,2.573,0.964,3.535,0c0.111-0.111,0.223-0.222,0.333-0.333c0.963-0.964,0.964-2.572,0-3.535
			C212.805,120.938,211.194,120.938,210.232,121.901L210.232,121.901z"/>
	</g>
</g>
</svg>
