<?xml version="1.0" encoding="utf-8"?>
<!-- Generator: Adobe Illustrator 16.0.0, SVG Export Plug-In . SVG Version: 6.00 Build 0)  -->
<!DOCTYPE svg PUBLIC "-//W3C//DTD SVG 1.1//EN" "http://www.w3.org/Graphics/SVG/1.1/DTD/svg11.dtd">
<svg version="1.1" id="图层_1" xmlns="http://www.w3.org/2000/svg" xmlns:xlink="http://www.w3.org/1999/xlink" x="0px" y="0px"
	 width="32px" height="32px" viewBox="0 0 32 32" enable-background="new 0 0 32 32" xml:space="preserve">
<path fill="#C92079" d="M2,16c0,7.732,6.268,14,14,14c7.731,0,14-6.268,14-14c0-7.731-6.269-14-14-14C8.268,2,2,8.269,2,16z"/>
<path fill="none" d="M17.563,14.672c-0.024,0.061-0.016,0.145-0.016,0.219"/>
<path fill="#F7F8F9" d="M24.904,10.047h-2.741c-0.409,0-0.684,0.274-0.684,0.686v1.368c0,0.411,0.274,0.686,0.684,0.686h0.685v7.531
	c0,0.412-0.273,0.686-0.685,0.686H9.838c-0.411,0-0.684-0.273-0.684-0.686v-6.846c0-0.41,0.273-0.685,0.684-0.685h4.794v2.465
	c0,0.549,0.684,0.959,1.233,0.549l3.833-3.836c0.273-0.273,0.273-0.685,0-0.958l-3.833-3.835c-0.549-0.548-1.233-0.137-1.233,0.411
	v2.465H7.099c-0.411,0-0.685,0.274-0.685,0.686v12.325c0,0.41,0.274,0.687,0.685,0.687h17.806c0.409,0,0.683-0.276,0.683-0.687
	V10.732C25.587,10.321,25.313,10.047,24.904,10.047z"/>
</svg>
