<?xml version="1.0" encoding="utf-8"?>
<!-- Generator: Adobe Illustrator 16.0.0, SVG Export Plug-In . SVG Version: 6.00 Build 0)  -->
<!DOCTYPE svg PUBLIC "-//W3C//DTD SVG 1.1//EN" "http://www.w3.org/Graphics/SVG/1.1/DTD/svg11.dtd">
<svg version="1.1" id="图层_1" xmlns="http://www.w3.org/2000/svg" xmlns:xlink="http://www.w3.org/1999/xlink" x="0px" y="0px"
	 width="32px" height="32px" viewBox="0 0 32 32" enable-background="new 0 0 32 32" xml:space="preserve">
<path fill="#1EA6E2" d="M2,16c0,7.732,6.268,14,14,14c7.73,0,14-6.268,14-14c0-7.731-6.27-14-14-14C8.268,2,2,8.269,2,16z"/>
<g>
	<path fill="#FFFFFF" d="M14.58,11.728c-0.185,0.046-0.317,0.092-0.4,0.138c-0.081,0.046-0.147,0.104-0.194,0.173
		c-0.049,0.069-0.084,0.173-0.108,0.312c-0.022,0.139-0.034,0.353-0.034,0.642v5.443c0,0.28,0.009,0.487,0.029,0.616
		c0.018,0.13,0.05,0.233,0.093,0.309c0.045,0.075,0.11,0.139,0.196,0.188c0.085,0.051,0.225,0.102,0.418,0.151v0.309h-2.624V19.7
		c0.239-0.059,0.405-0.126,0.497-0.201s0.155-0.187,0.188-0.334c0.034-0.147,0.05-0.39,0.05-0.729v-2.41
		c0-0.633,0.01-1.274,0.028-1.922c0.02-0.648,0.041-1.092,0.066-1.331h-0.107l-2.492,6.236H9.463l-2.316-6.336H7.041
		c0.021,0.255,0.041,0.719,0.06,1.391c0.019,0.671,0.028,1.361,0.028,2.07v2.303c0,0.28,0.009,0.487,0.028,0.616
		c0.019,0.13,0.05,0.233,0.094,0.309s0.109,0.139,0.195,0.188C7.532,19.6,7.672,19.65,7.865,19.7v0.309H5.568V19.7
		c0.26-0.067,0.434-0.141,0.522-0.224c0.088-0.081,0.146-0.198,0.173-0.349c0.027-0.151,0.041-0.382,0.041-0.692v-5.443
		c0-0.29-0.01-0.5-0.031-0.632c-0.021-0.132-0.056-0.235-0.104-0.309c-0.048-0.073-0.112-0.132-0.192-0.176
		c-0.08-0.044-0.216-0.093-0.409-0.147v-0.309h2.246l2.209,6.123l2.429-6.123h2.127V11.728z"/>
	<path fill="#FFFFFF" d="M19.589,19.108l-0.095-0.024c-0.365,0.373-0.708,0.637-1.028,0.793c-0.322,0.155-0.662,0.232-1.023,0.232
		c-0.318,0-0.6-0.063-0.843-0.186c-0.244-0.124-0.43-0.298-0.56-0.522s-0.195-0.484-0.195-0.777c0-0.613,0.303-1.086,0.91-1.418
		c0.606-0.335,1.515-0.529,2.728-0.583v-0.409c0-0.436-0.042-0.78-0.126-1.032c-0.083-0.252-0.216-0.437-0.396-0.554
		c-0.181-0.118-0.421-0.176-0.724-0.176c-0.327,0-0.591,0.086-0.789,0.258c-0.199,0.172-0.35,0.43-0.45,0.774h-0.825v-0.818
		c0.403-0.21,0.739-0.364,1.007-0.462c0.269-0.099,0.536-0.176,0.806-0.233c0.269-0.057,0.541-0.085,0.817-0.085
		c0.416,0,0.749,0.066,1.001,0.198s0.44,0.334,0.566,0.607c0.126,0.272,0.188,0.684,0.188,1.233v2.189
		c0,0.311,0.002,0.53,0.007,0.657c0.004,0.129,0.017,0.246,0.037,0.356c0.021,0.109,0.053,0.195,0.095,0.261s0.104,0.12,0.186,0.167
		c0.081,0.047,0.215,0.095,0.399,0.145v0.309h-1.724L19.589,19.108z M19.481,17.139c-0.852,0.01-1.489,0.123-1.913,0.34
		c-0.423,0.218-0.636,0.548-0.636,0.988c0,0.239,0.049,0.428,0.146,0.566c0.096,0.139,0.218,0.233,0.364,0.287
		c0.146,0.052,0.321,0.078,0.522,0.078c0.285,0,0.544-0.069,0.777-0.208c0.232-0.139,0.414-0.314,0.544-0.528
		c0.131-0.214,0.195-0.426,0.195-0.636V17.139z"/>
	<path fill="#FFFFFF" d="M24.906,16.378l0.818-1.039c0.088-0.113,0.158-0.223,0.214-0.331c0.055-0.107,0.081-0.217,0.081-0.33
		c0-0.097-0.035-0.176-0.106-0.239s-0.183-0.109-0.334-0.138v-0.309h2.058v0.309c-0.158,0.046-0.321,0.136-0.486,0.271
		c-0.167,0.134-0.369,0.35-0.608,0.648l-1.303,1.599l1.436,1.932c0.205,0.277,0.39,0.489,0.554,0.636
		c0.163,0.146,0.327,0.252,0.49,0.314v0.309h-2.529V19.7c0.348-0.042,0.522-0.172,0.522-0.39c0-0.089-0.015-0.172-0.044-0.252
		c-0.03-0.08-0.084-0.172-0.164-0.277l-0.912-1.271l-0.97,1.258c-0.07,0.093-0.127,0.178-0.167,0.255
		c-0.039,0.078-0.06,0.165-0.06,0.262c0,0.113,0.039,0.207,0.117,0.279c0.077,0.074,0.199,0.119,0.367,0.136v0.309h-2.102V19.7
		c0.139-0.05,0.264-0.113,0.375-0.188c0.11-0.076,0.224-0.174,0.34-0.292c0.115-0.121,0.267-0.295,0.456-0.526l1.309-1.623
		l-1.34-1.838c-0.185-0.252-0.332-0.434-0.441-0.547c-0.108-0.113-0.209-0.199-0.302-0.258c-0.093-0.059-0.185-0.101-0.276-0.125
		v-0.309h2.467v0.309c-0.332,0.05-0.497,0.18-0.497,0.39c0,0.097,0.022,0.193,0.065,0.289c0.045,0.097,0.112,0.204,0.205,0.321
		L24.906,16.378z"/>
</g>
</svg>
