<?xml version="1.0" encoding="utf-8"?>
<!-- Generator: Adobe Illustrator 16.0.0, SVG Export Plug-In . SVG Version: 6.00 Build 0)  -->
<!DOCTYPE svg PUBLIC "-//W3C//DTD SVG 1.1//EN" "http://www.w3.org/Graphics/SVG/1.1/DTD/svg11.dtd">
<svg version="1.1" id="图层_1" xmlns="http://www.w3.org/2000/svg" xmlns:xlink="http://www.w3.org/1999/xlink" x="0px" y="0px"
	 width="32px" height="32px" viewBox="0 0 32 32" enable-background="new 0 0 32 32" xml:space="preserve">
<path fill="#1EA6E2" d="M2,16c0,7.732,6.268,14,14,14c7.73,0,14-6.268,14-14c0-7.731-6.27-14-14-14C8.268,2,2,8.269,2,16z"/>
<g>
	<path fill="#FFFFFF" d="M15.151,11.379c-0.201,0.05-0.345,0.1-0.434,0.15s-0.16,0.113-0.212,0.188s-0.091,0.188-0.116,0.338
		s-0.038,0.383-0.038,0.697v5.913c0,0.306,0.01,0.528,0.031,0.67s0.055,0.253,0.103,0.335s0.119,0.15,0.212,0.205
		s0.245,0.109,0.455,0.164v0.335h-2.851V20.04c0.26-0.063,0.44-0.137,0.54-0.219s0.168-0.203,0.205-0.362s0.055-0.424,0.055-0.793
		v-2.618c0-0.688,0.01-1.384,0.031-2.088s0.044-1.186,0.072-1.446h-0.116l-2.707,6.774H9.594l-2.516-6.884H6.962
		c0.023,0.278,0.044,0.782,0.065,1.511s0.031,1.479,0.031,2.249v2.502c0,0.306,0.01,0.528,0.031,0.67s0.055,0.253,0.103,0.335
		s0.119,0.15,0.212,0.205s0.245,0.109,0.455,0.164v0.335H5.362V20.04c0.283-0.073,0.472-0.153,0.567-0.243
		c0.096-0.088,0.158-0.215,0.188-0.379s0.044-0.415,0.044-0.752v-5.913c0-0.314-0.011-0.543-0.034-0.687s-0.061-0.255-0.113-0.335
		s-0.122-0.144-0.208-0.191s-0.235-0.102-0.444-0.161v-0.335h2.44l2.399,6.651l2.639-6.651h2.311V11.379z"/>
	<path fill="#FFFFFF" d="M16.642,20.04c0.178-0.055,0.304-0.103,0.38-0.144c0.074-0.041,0.139-0.098,0.191-0.171
		c0.052-0.073,0.093-0.185,0.123-0.335c0.029-0.15,0.044-0.385,0.044-0.704v-2.98c0-0.292-0.005-0.526-0.014-0.704
		s-0.041-0.32-0.096-0.427s-0.138-0.187-0.249-0.239c-0.112-0.052-0.271-0.097-0.476-0.133V13.84l1.593-0.062h0.417v4.888
		c0,0.392,0.019,0.664,0.055,0.816c0.036,0.153,0.106,0.27,0.208,0.35c0.104,0.079,0.271,0.148,0.503,0.208v0.335h-2.68V20.04z
		 M18.597,11.16v1.326h-1.258V11.16H18.597z"/>
	<path fill="#FFFFFF" d="M27.189,20.375h-2.693V20.04c0.178-0.055,0.306-0.103,0.383-0.144s0.143-0.098,0.195-0.171
		c0.052-0.073,0.093-0.186,0.123-0.339c0.029-0.152,0.044-0.384,0.044-0.693v-1.791c0-0.318-0.009-0.608-0.027-0.868
		s-0.049-0.473-0.093-0.639c-0.043-0.167-0.096-0.296-0.156-0.39c-0.063-0.093-0.135-0.173-0.219-0.239
		c-0.085-0.066-0.182-0.119-0.291-0.157s-0.253-0.058-0.431-0.058s-0.347,0.035-0.506,0.106s-0.335,0.192-0.526,0.366
		s-0.33,0.344-0.417,0.513s-0.13,0.362-0.13,0.581v2.55c0,0.392,0.019,0.664,0.055,0.816c0.036,0.153,0.105,0.27,0.209,0.35
		c0.102,0.079,0.27,0.148,0.502,0.208v0.335h-2.68V20.04c0.178-0.055,0.305-0.103,0.379-0.144c0.076-0.041,0.14-0.098,0.191-0.171
		c0.053-0.073,0.094-0.185,0.123-0.335c0.03-0.15,0.045-0.385,0.045-0.704v-2.98c0-0.292-0.005-0.526-0.014-0.704
		s-0.041-0.32-0.096-0.427s-0.138-0.187-0.25-0.239c-0.111-0.052-0.27-0.097-0.475-0.133V13.84l1.6-0.062h0.417l-0.075,1.114
		l0.096,0.027c0.337-0.342,0.609-0.585,0.816-0.731c0.208-0.146,0.418-0.259,0.629-0.338c0.213-0.08,0.437-0.12,0.674-0.12
		c0.246,0,0.466,0.028,0.66,0.085c0.193,0.057,0.364,0.145,0.512,0.263c0.148,0.119,0.271,0.266,0.366,0.441
		s0.167,0.386,0.216,0.632c0.047,0.246,0.071,0.558,0.071,0.937v2.577c0,0.314,0.009,0.542,0.027,0.684s0.05,0.251,0.096,0.328
		s0.111,0.143,0.198,0.195c0.087,0.052,0.237,0.107,0.451,0.167V20.375z"/>
</g>
</svg>
