<?xml version="1.0" encoding="utf-8"?>
<!-- Generator: Adobe Illustrator 16.0.0, SVG Export Plug-In . SVG Version: 6.00 Build 0)  -->
<!DOCTYPE svg PUBLIC "-//W3C//DTD SVG 1.1//EN" "http://www.w3.org/Graphics/SVG/1.1/DTD/svg11.dtd">
<svg version="1.1" id="图层_1" xmlns="http://www.w3.org/2000/svg" xmlns:xlink="http://www.w3.org/1999/xlink" x="0px" y="0px"
	 width="32px" height="32px" viewBox="0 0 32 32" enable-background="new 0 0 32 32" xml:space="preserve">
<path fill="#1EA6E2" d="M2,16c0,7.732,6.268,14,14,14c7.73,0,14-6.268,14-14c0-7.731-6.27-14-14-14C8.268,2,2,8.269,2,16z"/>
<g>
	<path fill="#FFFFFF" d="M14.151,20.201h-1.869v-5.027c0-0.543,0.023-1.143,0.07-1.799h-0.047c-0.098,0.516-0.186,0.887-0.264,1.113
		l-1.969,5.713H8.526l-2.004-5.654c-0.055-0.152-0.143-0.543-0.264-1.172H6.206c0.051,0.828,0.076,1.555,0.076,2.18v4.646H4.577
		v-8.402h2.771l1.717,4.98c0.137,0.398,0.236,0.799,0.299,1.201h0.035c0.105-0.465,0.217-0.869,0.334-1.213l1.717-4.969h2.701
		V20.201z"/>
	<path fill="#FFFFFF" d="M18.657,11.799v1.465h-0.703v5.473h0.703v1.465h-3.299v-1.465h0.703v-5.473h-0.703v-1.465H18.657z"/>
	<path fill="#FFFFFF" d="M27.423,20.201h-1.91l-3.463-5.279c-0.203-0.309-0.344-0.541-0.422-0.697h-0.023
		c0.031,0.297,0.047,0.75,0.047,1.359v4.617h-1.787v-8.402h2.039l3.334,5.115c0.152,0.23,0.293,0.459,0.422,0.686h0.023
		c-0.031-0.195-0.047-0.58-0.047-1.154v-4.646h1.787V20.201z"/>
</g>
</svg>
