<?xml version="1.0" encoding="utf-8"?>
<!-- Generator: Adobe Illustrator 16.0.0, SVG Export Plug-In . SVG Version: 6.00 Build 0)  -->
<!DOCTYPE svg PUBLIC "-//W3C//DTD SVG 1.1//EN" "http://www.w3.org/Graphics/SVG/1.1/DTD/svg11.dtd">
<svg version="1.1" id="图层_1" xmlns="http://www.w3.org/2000/svg" xmlns:xlink="http://www.w3.org/1999/xlink" x="0px" y="0px"
	 width="32px" height="32px" viewBox="0 0 32 32" enable-background="new 0 0 32 32" xml:space="preserve">
<path fill="#B42EE5" d="M2,16c0,7.733,6.268,14,14,14c7.731,0,14-6.268,14-14c0-7.731-6.269-14-14-14C8.268,2,2,8.268,2,16z"/>
<g>
	<path fill="#FFFFFF" d="M13.239,8.301c0.702,0,1.276,0.243,1.72,0.73c0.445,0.487,0.667,1.174,0.667,2.063
		c0,1.481-0.457,2.793-1.371,3.936c-0.736,0.931-1.604,1.396-2.603,1.396c-0.694,0-1.268-0.248-1.72-0.743s-0.679-1.153-0.679-1.974
		c0-1.32,0.379-2.552,1.136-3.694S12.096,8.301,13.239,8.301z M13.056,8.847c-0.529,0-1.022,0.53-1.479,1.59
		c-0.458,1.061-0.687,2.232-0.687,3.517c0,0.659,0.101,1.145,0.302,1.458c0.201,0.313,0.432,0.469,0.693,0.469
		c0.47,0,0.894-0.41,1.271-1.229c0.554-1.199,0.831-2.483,0.831-3.852c0-0.659-0.109-1.174-0.327-1.546
		C13.493,8.982,13.291,8.847,13.056,8.847z M11.258,23.598c0.721-1.201,1.339-2.266,1.855-3.197l4.654-8.464
		c0.745-1.379,1.385-2.589,1.919-3.629c0.201,0.058,0.536,0.115,1.005,0.172C19.912,9.74,19.175,11,18.48,12.262L14.4,19.688
		c-0.745,1.355-1.439,2.691-2.084,4.012c-0.159-0.033-0.373-0.059-0.642-0.076C11.582,23.623,11.443,23.615,11.258,23.598z
		 M20.361,15.575c0.702,0,1.275,0.243,1.721,0.73c0.443,0.486,0.666,1.173,0.666,2.062c0,1.482-0.457,2.793-1.371,3.936
		c-0.736,0.932-1.604,1.396-2.603,1.396c-0.694,0-1.268-0.246-1.72-0.742c-0.453-0.494-0.68-1.152-0.68-1.975
		c0-1.32,0.379-2.551,1.137-3.693C18.269,16.146,19.219,15.575,20.361,15.575z M20.179,16.121c-0.529,0-1.022,0.53-1.479,1.59
		c-0.458,1.061-0.687,2.232-0.687,3.518c0,0.658,0.101,1.145,0.302,1.457c0.202,0.313,0.433,0.469,0.693,0.469
		c0.47,0,0.894-0.41,1.271-1.23c0.554-1.199,0.831-2.482,0.831-3.852c0-0.658-0.109-1.174-0.327-1.546
		C20.615,16.256,20.413,16.121,20.179,16.121z"/>
</g>
</svg>
