<?xml version="1.0" standalone="no"?><!DOCTYPE svg PUBLIC "-//W3C//DTD SVG 1.1//EN" "http://www.w3.org/Graphics/SVG/1.1/DTD/svg11.dtd"><svg t="1617093809881" class="icon" viewBox="0 0 1025 1024" version="1.1" xmlns="http://www.w3.org/2000/svg" p-id="9933" xmlns:xlink="http://www.w3.org/1999/xlink" width="100.09765625" height="100"><defs><style type="text/css"></style></defs><path d="M983.58658 312.535885a511.970268 511.970268 0 1 1-109.593736-162.600274 508.325669 508.325669 0 0 1 109.593736 162.600274zM553.715703 594.768527L576.222701 311.448899A63.940336 63.940336 0 0 0 513.816933 255.884748 66.050367 66.050367 0 0 0 448.34203 310.297973l25.128552 287.347869c6.394034 30.691361 20.460907 38.364201 38.683903 41.88092H512.282365a43.479428 43.479428 0 0 0 41.561219-44.758235zM512.282365 703.467097a63.940336 63.940336 0 1 0 63.940336 63.940336 63.940336 63.940336 0 0 0-63.940336-63.940336z" fill="#FFCB1E" p-id="9934"></path></svg>