<?xml version="1.0" standalone="no"?>
<!DOCTYPE svg PUBLIC "-//W3C//DTD SVG 1.1//EN" "http://www.w3.org/Graphics/SVG/1.1/DTD/svg11.dtd"><svg t="1677480138571"
  class="icon" viewBox="0 0 1024 1024" version="1.1" xmlns="http://www.w3.org/2000/svg"
  xmlns:xlink="http://www.w3.org/1999/xlink" width="30" height="30">
  <path
    d="M512 949.333333C270.933333 949.333333 74.666667 753.066667 74.666667 512S270.933333 74.666667 512 74.666667 949.333333 270.933333 949.333333 512 753.066667 949.333333 512 949.333333z m-151.466667-292.266666c10.666667 10.666667 29.866667 12.8 42.666667 2.133333l2.133333-2.133333 104.533334-102.4 102.4 102.4 2.133333 2.133333c12.8 10.666667 32 8.533333 42.666667-2.133333 12.8-12.8 12.8-32 0-44.8L554.666667 509.866667l102.4-102.4 2.133333-2.133334c10.666667-12.8 8.533333-32-2.133333-42.666666s-29.866667-12.8-42.666667-2.133334l-2.133333 2.133334-102.4 102.4-102.4-102.4-2.133334-2.133334c-12.8-10.666667-32-8.533333-42.666666 2.133334-12.8 12.8-12.8 32 0 44.8l102.4 102.4-102.4 102.4-2.133334 2.133333c-10.666667 12.8-10.666667 32 0 42.666667z"
    fill="#f12400"></path>
</svg>