<?xml version="1.0" standalone="no"?>
<!DOCTYPE svg PUBLIC "-//W3C//DTD SVG 1.1//EN" "http://www.w3.org/Graphics/SVG/1.1/DTD/svg11.dtd"><svg t="1677480163991"
  class="icon" viewBox="0 0 1024 1024" version="1.1" xmlns="http://www.w3.org/2000/svg" p-id="8103"
  xmlns:xlink="http://www.w3.org/1999/xlink" width="30" height="30">
  <path
    d="M934.4 770.133333L605.866667 181.333333C586.666667 147.2 550.4 128 512 128s-74.666667 21.333333-93.866667 53.333333L89.6 770.133333c-19.2 34.133333-19.2 76.8 0 110.933334S145.066667 938.666667 183.466667 938.666667h657.066666c40.533333 0 74.666667-21.333333 93.866667-57.6 19.2-34.133333 19.2-76.8 0-110.933334zM480 362.666667c0-17.066667 14.933333-32 32-32s29.866667 12.8 32 29.866666V640c0 17.066667-14.933333 32-32 32s-29.866667-12.8-32-29.866667V362.666667zM512 832c-23.466667 0-42.666667-19.2-42.666667-42.666667s19.2-42.666667 42.666667-42.666666 42.666667 19.2 42.666667 42.666666-19.2 42.666667-42.666667 42.666667z"
    fill="#c99300"></path>
</svg>