<?xml version="1.0" encoding="utf-8"?>
<!-- Generator: Adobe Illustrator 23.0.0, SVG Export Plug-In . SVG Version: 6.00 Build 0)  -->
<svg version="1.1" id="图层_1" xmlns="http://www.w3.org/2000/svg" xmlns:xlink="http://www.w3.org/1999/xlink" x="0px" y="0px"
	 viewBox="0 0 175 30" style="enable-background:new 0 0 175 30;" xml:space="preserve">
<style type="text/css">
	.st0{fill:#19A8F7;}
	.st1{fill:none;stroke:#3FA9F5;stroke-miterlimit:10;}
</style>
<g>
	<path d="M31.3,23.6v-2.1h1.2V8.1h-1.2V5.9h3.9l2,6.4l1.2,5.2h0.1l-0.3-5.3V8.1H37V5.9h4.5v2.1h-1.2v15.5h-2l-2.2-6.8
		c-0.2-0.7-0.5-1.6-0.7-2.7l-1-4h-0.1l0.2,5.4v5.9h1.2v2.1H31.3z"/>
	<path d="M51.2,14.9c0,6-1.4,9-4.1,9c-1.4,0-2.4-0.7-3.1-2.2s-1-3.8-1-6.8c0-2,0.2-3.7,0.5-5.1s0.8-2.4,1.4-3.1s1.4-1,2.2-1
		c1.3,0,2.3,0.8,3,2.3S51.2,11.8,51.2,14.9z M45.8,15c0,2.6,0.1,4.3,0.3,5.2s0.6,1.4,1.1,1.4c0.5,0,0.9-0.5,1.1-1.4s0.3-2.7,0.3-5.2
		c0-2.8-0.1-4.6-0.3-5.6S47.7,8,47.2,8c-0.6,0-0.9,0.5-1.1,1.6S45.8,12.4,45.8,15z"/>
	<path d="M53,23.6v-2.1h1.3V8.1H53V5.9h3.2c2,0,3.5,0.7,4.4,2.2s1.4,3.7,1.4,6.7c0,3-0.5,5.2-1.4,6.6s-2.4,2.2-4.3,2.2H53z
		 M56.8,8.1v13.4c0.9,0,1.5-0.5,1.9-1.4c0.4-0.9,0.5-2.6,0.5-4.9c0-1.8-0.1-3.3-0.2-4.3c-0.1-1-0.4-1.7-0.7-2.2
		C57.9,8.3,57.5,8.1,56.8,8.1z"/>
	<path d="M63.2,23.6v-2.1h1.3V8.1h-1.3V5.9h8.1v5.2h-2.1v-3H67v5.4h1.8v2.1H67v5.9h2.2v-3.3h2.1v5.4H63.2z"/>
	<path class="st0" d="M82.1,21.5V8.1h-1.3V5.9h3.9c1.5,0,2.6,0.4,3.4,1.2c0.8,0.8,1.3,1.9,1.3,3.3c0,1-0.2,1.9-0.7,2.6
		c-0.5,0.7-1.1,1-2,1.1v0c1,0.2,1.7,0.7,2.3,1.5s0.8,1.8,0.8,2.9c0,1.5-0.4,2.8-1.3,3.6c-0.9,0.9-2.2,1.3-3.8,1.3h-3.9v-2.1H82.1z
		 M84.6,8.1v5.2c0.5,0,0.9-0.1,1.2-0.2s0.6-0.3,0.8-0.7s0.3-0.9,0.3-1.7c0-1-0.1-1.6-0.4-2.1S85.5,8.1,84.6,8.1z M84.6,15.4v6
		c0.9,0,1.6-0.2,2-0.7c0.4-0.5,0.6-1.2,0.6-2.3c0-0.9-0.1-1.6-0.4-2.1s-0.6-0.7-0.9-0.9C85.5,15.5,85.1,15.4,84.6,15.4z"/>
	<path class="st0" d="M91,23.6v-2.1h1.3V8.1H91V5.9h5.1v2.1h-1.3v13.4h2.2v-5.5H99v7.7H91z"/>
	<path class="st0" d="M99.8,8.1V5.9h4.8v2.1h-0.9v11.3c0,0.9,0.1,1.5,0.3,1.8s0.6,0.5,1.1,0.5c0.5,0,0.9-0.2,1.1-0.5
		s0.3-0.9,0.3-1.8V8.1h-0.9V5.9h4.4v2.1h-1.3v11.2c0,1.6-0.4,2.8-1.1,3.5s-1.6,1.1-2.7,1.1c-1.2,0-2.1-0.4-2.8-1.1s-1-1.6-1-2.7v-12
		H99.8z"/>
	<path class="st0" d="M111,23.6v-2.1h1.3V8.1H111V5.9h8.1v5.2H117v-3h-2.2v5.4h1.8v2.1h-1.8v5.9h2.2v-3.3h2.1v5.4H111z"/>
	<path class="st0" d="M121.9,21.5V8.1h-1.4V5.9h4.4c1.5,0,2.7,0.5,3.6,1.5s1.3,2.3,1.3,4c0,1.7-0.4,3-1.2,4s-2.2,1.4-4.1,1.4v4.7
		h1.5v2.1h-5.4v-2.1H121.9z M124.4,8.1v6.6c0.6,0,1-0.1,1.4-0.2s0.7-0.4,0.9-0.9s0.4-1.2,0.4-2.2c0-1.3-0.2-2.2-0.7-2.6
		S125.3,8.1,124.4,8.1z"/>
	<path class="st0" d="M134.3,15.6v5.9h1.3v2.1h-5.3v-2.1h1.5V8.1h-1.5V5.9h4.4c1.5,0,2.7,0.4,3.5,1.3c0.9,0.9,1.3,2,1.3,3.5
		c0,1.9-0.7,3.3-2.1,4.2l1.9,6.6h1.1v2.1h-3l-2.2-8.1C135,15.6,134.7,15.6,134.3,15.6z M134.3,8.1v5.4c0.9,0,1.6-0.2,2-0.7
		s0.6-1.1,0.6-2.1c0-1-0.2-1.7-0.6-2.1S135.2,8.1,134.3,8.1z"/>
	<path class="st0" d="M141.2,23.6v-2.1h1.3V8.1h-1.3V5.9h5.2v2.1H145v13.4h1.3v2.1H141.2z"/>
	<path class="st0" d="M147.5,23.6v-2.1h1.2V8.1h-1.2V5.9h3.9l2,6.4l1.2,5.2h0.1l-0.3-5.3V8.1h-1.2V5.9h4.5v2.1h-1.2v15.5h-2
		l-2.2-6.8c-0.2-0.7-0.5-1.6-0.7-2.7l-1-4h-0.1l0.2,5.4v5.9h1.2v2.1H147.5z"/>
	<path class="st0" d="M168.2,5.9v6.5h-1.9V7.8h-1.5v13.7h1.4v2.1h-5.3v-2.1h1.4V7.8h-1.5v4.6h-1.9V5.9H168.2z"/>
</g>
<path class="st0" d="M12.6,15.5H8.4c-1.1,0-1.9,0.9-1.9,1.9v4.1c0,1.1,0.9,1.9,1.9,1.9h4.1c1.1,0,1.9-0.9,1.9-1.9v-4.1
	C14.5,16.4,13.6,15.5,12.6,15.5z"/>
<path class="st1" d="M23.2,6.5h-5.3c-0.7,0-1.3,0.6-1.3,1.3v5.3c0,0.7,0.6,1.3,1.3,1.3h5.3c0.7,0,1.3-0.6,1.3-1.3V7.8
	C24.5,7.1,23.9,6.5,23.2,6.5z"/>
<path class="st0" d="M20.5,15.5"/>
<g>
	<path d="M10,19.9c1.3-0.3,2.5-0.8,3.2-1.7c0.4-0.4,0.6-1,0.6-1.5c0-0.6,0-1.2-0.1-1.9c0-0.7,0.1-1.6,0.4-2.3
		c0.3-0.8,0.9-1.4,1.6-1.8c1.3-0.8,2.8-1,4.2-0.7l0,0.2c-1.2,0.8-2.3,1.4-3.1,2.2c-0.8,0.7-1.4,1.4-1.6,2.6
		c-0.1,0.6-0.1,1.3-0.3,2.1c-0.2,0.8-0.6,1.5-1.2,2c-1.2,1-2.6,1.2-3.9,1.2L10,19.9z"/>
</g>
</svg>
