<?xml version="1.0" encoding="utf-8"?>
<!-- Generator: Adobe Illustrator 23.0.0, SVG Export Plug-In . SVG Version: 6.00 Build 0)  -->
<svg version="1.1" id="图层_1" xmlns="http://www.w3.org/2000/svg" xmlns:xlink="http://www.w3.org/1999/xlink" x="0px" y="0px"
	 viewBox="0 0 256 256" style="enable-background:new 0 0 256 256;" xml:space="preserve">
<style type="text/css">
	.st0{fill:#19A8F7;}
	.st1{fill:none;stroke:#3FA9F5;stroke-width:10;stroke-miterlimit:10;}
	.st2{stroke:#FFFFFF;stroke-width:3;stroke-miterlimit:10;}
</style>
<path class="st0" d="M91.6,135H38.8c-14.1,0-23.7,11.4-23.7,23.7v51.9c0,14.1,11.4,23.7,23.7,23.7h51.9c14.1,0,23.7-11.4,23.7-23.7
	v-51.9C115.3,146.5,103.9,135,91.6,135z"/>
<path class="st1" d="M224.3,21.6h-66.8c-8.8,0-16.7,7.9-16.7,16.7v66.8c0,8.8,7.9,16.7,16.7,16.7h66.8c8.8,0,16.7-7.9,16.7-16.7
	V38.3C241,29.6,233.1,21.6,224.3,21.6z"/>
<path class="st0" d="M190.9,135"/>
<g>
	<path class="st2" d="M58.2,193c17.6-4.4,33.4-10.5,42.2-22.9c5.3-5.3,7.9-13.2,7.9-20.2c0-7.9,0-15.8-1.8-25.5
		c0-9.7,1.8-21.1,5.3-30.8c4.4-10.5,12.3-18.5,21.1-23.7c17.6-10.5,36.9-13.2,56.3-9.7V63c-15.8,10.5-30.8,18.5-41.3,29
		c-10.5,9.7-18.5,18.5-21.1,34.3c-1.8,7.9-1.8,17.6-4.4,28.1c-2.6,10.5-7.9,20.2-15.8,26.4c-14.9,14.9-33.4,17.6-51,17.6L58.2,193z"
		/>
</g>
</svg>
